<svg width="118" height="23" viewBox="0 0 118 23" fill="none" xmlns="http://www.w3.org/2000/svg">
<path d="M11.8083 10.8262C12.5568 11.5035 13.1182 12.2788 13.4925 13.1521C13.8668 14.0254 14.0717 14.9521 14.1074 15.9323C14.1074 16.7522 13.9024 17.5096 13.4925 18.2047C13.1004 18.8819 12.5925 19.4701 11.9687 19.9691C11.3449 20.4681 10.6498 20.8691 9.88348 21.1721C9.13494 21.4751 8.41313 21.6533 7.71806 21.7068C6.96952 21.7424 6.22098 21.7781 5.47244 21.8137C4.7239 21.8672 3.96645 21.9117 3.20009 21.9474C3.00405 21.9652 2.79909 21.9563 2.58522 21.9207C2.38917 21.885 2.19313 21.8494 1.99708 21.8137C1.03468 21.5464 0.53565 20.9137 0.500005 19.9156C0.500005 19.5236 0.508916 19.1493 0.526738 18.7928C0.544561 18.4364 0.553472 18.071 0.553472 17.6968C0.571294 17.1799 0.580205 16.6631 0.580205 16.1462C0.580205 15.6115 0.580205 15.0858 0.580205 14.5689C0.562383 13.4996 0.544561 12.4481 0.526738 11.4144C0.508916 10.3629 0.482183 9.30243 0.446538 8.23309C0.410893 7.39544 0.357426 6.57561 0.286137 5.7736C0.214847 4.95377 0.143558 4.12503 0.0722684 3.28738C0.0722684 2.84182 0.0990019 2.46756 0.152469 2.16458C0.223758 1.84377 0.339604 1.58535 0.500005 1.3893C0.660406 1.19326 0.874274 1.04177 1.14161 0.934832C1.40895 0.810077 1.75648 0.729876 2.18422 0.694231C2.89711 0.694231 3.62783 0.703142 4.37637 0.720964C5.14273 0.720964 5.89127 0.76552 6.62198 0.854631C7.3527 0.943743 8.04777 1.07741 8.7072 1.25564C9.38445 1.43386 10.0082 1.68337 10.5785 2.00417C11.1489 2.30715 11.639 2.68142 12.0489 3.12698C12.4588 3.55472 12.7707 4.03592 12.9846 4.57059C13.2163 5.10526 13.341 5.67558 13.3588 6.28154C13.3945 6.8875 13.3143 7.49346 13.1182 8.09942C12.94 8.61627 12.7529 9.08856 12.5568 9.5163C12.4677 9.74799 12.3519 9.97077 12.2093 10.1846C12.0845 10.3807 11.9509 10.5945 11.8083 10.8262ZM5.25857 16.5472C5.68631 16.6185 6.08731 16.6007 6.46158 16.4938C6.83585 16.3868 7.21012 16.2353 7.58439 16.0393C7.78044 15.9145 7.94084 15.763 8.0656 15.5848C8.20817 15.4066 8.26164 15.166 8.226 14.863C8.17253 14.2749 7.88737 13.9006 7.37052 13.7402C7.01408 13.6154 6.64872 13.5352 6.27445 13.4996C5.918 13.4639 5.56155 13.5263 5.20511 13.6867V16.0927C5.20511 16.1819 5.21402 16.2621 5.23184 16.3333C5.24966 16.4046 5.25857 16.4759 5.25857 16.5472ZM5.04471 8.36676C5.32986 8.4024 5.63284 8.4024 5.95365 8.36676C6.27445 8.33111 6.56852 8.25091 6.83585 8.12615C7.10319 8.0014 7.31706 7.83208 7.47746 7.61822C7.65568 7.40435 7.73588 7.1281 7.71806 6.78948C7.66459 6.41521 7.54875 6.11223 7.37052 5.88054C7.1923 5.64885 6.9517 5.51518 6.64872 5.47953C6.41703 5.44389 6.18534 5.43498 5.95365 5.4528C5.73978 5.4528 5.517 5.46171 5.28531 5.47953C5.01797 5.51518 4.89322 5.66667 4.91104 5.934C4.94668 6.3261 4.96451 6.7271 4.96451 7.13701C4.98233 7.5291 5.00906 7.93902 5.04471 8.36676ZM25.6652 14.7828C25.8078 14.9076 25.9326 15.0323 26.0395 15.1571C26.1464 15.2818 26.2712 15.3888 26.4138 15.4779C26.7702 15.7274 27.1267 15.9591 27.4831 16.1729C27.8574 16.3868 28.2406 16.6007 28.6327 16.8146C28.8465 16.9393 29.0604 17.0462 29.2743 17.1354C29.4881 17.2066 29.702 17.2868 29.9159 17.376C30.3258 17.572 30.5931 17.777 30.7179 17.9908C30.8426 18.1869 30.8872 18.5166 30.8515 18.98C30.8159 19.6929 30.5931 20.3345 30.1832 20.9048C29.7198 21.5464 29.096 21.8137 28.3119 21.7068C27.7415 21.6533 27.1891 21.5107 26.6544 21.2791C26.1197 21.0652 25.6385 20.7622 25.2108 20.3701C24.8009 19.9958 24.4088 19.6127 24.0345 19.2206C23.6602 18.8107 23.286 18.4097 22.9117 18.0176C22.7869 17.875 22.6711 17.7413 22.5642 17.6166C22.4572 17.474 22.3146 17.3492 22.1364 17.2423C22.1542 17.5631 22.1721 17.8928 22.1899 18.2314C22.2255 18.5522 22.2433 18.8819 22.2433 19.2206C22.2612 19.4701 22.2701 19.7285 22.2701 19.9958C22.2701 20.2632 22.2523 20.5216 22.2166 20.7711C22.181 21.1097 22.0829 21.3593 21.9225 21.5197C21.78 21.6801 21.5483 21.787 21.2275 21.8405C20.8354 21.8761 20.4522 21.9028 20.0779 21.9207C19.7037 21.9563 19.3205 21.9563 18.9284 21.9207C18.1799 21.8672 17.761 21.4305 17.6719 20.6107C17.6363 20.2721 17.6006 19.9424 17.565 19.6216C17.5472 19.2829 17.5382 18.9443 17.5382 18.6057C17.467 15.7719 17.4135 13.0184 17.3778 10.345C17.36 7.67168 17.3957 4.98942 17.4848 2.29824C17.4848 2.19131 17.4937 2.09329 17.5115 2.00417C17.5293 1.89724 17.5561 1.79031 17.5917 1.68337C17.7165 1.27346 17.9838 1.04177 18.3937 0.988299C19.6056 0.810075 20.8532 0.801164 22.1364 0.961566C22.4216 0.997211 22.6978 1.03286 22.9652 1.0685C23.2503 1.08632 23.5444 1.12197 23.8474 1.17543C26.1108 1.63882 27.795 2.61013 28.9 4.08939C30.005 5.55082 30.4238 7.37761 30.1565 9.56976C29.9783 10.8886 29.5149 12.0292 28.7663 12.9917C28.0178 13.9541 26.9841 14.5511 25.6652 14.7828ZM22.1631 11.3074C22.2523 11.3253 22.3235 11.3431 22.377 11.3609C22.4483 11.3787 22.5107 11.3876 22.5642 11.3876C23.1166 11.352 23.6068 11.2005 24.0345 10.9332C24.4622 10.6658 24.8009 10.3361 25.0504 9.94403C25.2999 9.55194 25.4425 9.12421 25.4781 8.66082C25.5316 8.17962 25.4425 7.70733 25.2108 7.24395C25.1038 6.99443 24.9345 6.77165 24.7028 6.57561C24.4711 6.36174 24.2127 6.19243 23.9276 6.06767C23.6424 5.94291 23.3394 5.86271 23.0186 5.82707C22.7156 5.7736 22.4305 5.78251 22.1631 5.8538V11.3074ZM58.2307 11.548C58.2841 12.7778 58.3287 13.9897 58.3643 15.1838C58.4178 16.3779 58.4623 17.5809 58.498 18.7928C58.5158 19.1315 58.5158 19.4701 58.498 19.8087C58.4802 20.1473 58.4623 20.477 58.4445 20.7978C58.4089 21.3682 58.1148 21.6979 57.5623 21.787C57.4376 21.8226 57.3128 21.8494 57.188 21.8672C57.0633 21.885 56.9385 21.8939 56.8138 21.8939C56.4573 21.8761 56.1098 21.8583 55.7712 21.8405C55.4504 21.8405 55.1207 21.8315 54.782 21.8137C53.8018 21.7246 53.285 21.2078 53.2315 20.2632C53.2137 19.9246 53.2137 19.5948 53.2315 19.274C53.2493 18.9354 53.2671 18.5968 53.285 18.2582C53.3206 17.5809 53.3562 16.9037 53.3919 16.2264C53.4275 15.5313 53.4632 14.8452 53.4988 14.1679C53.5345 13.1521 53.5701 12.1451 53.6058 11.147C53.6592 10.149 53.686 9.15094 53.686 8.15289C53.7038 7.2083 53.6949 6.23698 53.6592 5.23893C53.6236 4.22306 53.5879 3.24283 53.5523 2.29824C53.5166 1.72793 53.579 1.32692 53.7394 1.09523C53.9176 0.84572 54.2919 0.703142 54.8622 0.667497C55.6821 0.61403 56.5554 0.658586 57.4821 0.801165C57.7851 0.836809 58.0435 0.961566 58.2574 1.17543C58.4713 1.3893 58.6762 1.6299 58.8723 1.89724C59.0327 2.11111 59.1752 2.33389 59.3 2.56558C59.4426 2.77945 59.5852 3.01114 59.7277 3.26065C60.3515 4.49039 60.9842 5.7736 61.6258 7.11028C62.2852 8.42913 62.9714 9.64105 63.6843 10.746C63.6843 10.2827 63.6843 9.81037 63.6843 9.32916C63.7021 8.84796 63.7021 8.37567 63.6843 7.91229C63.6843 7.03899 63.6754 6.10332 63.6576 5.10526C63.6397 4.08939 63.6308 3.15372 63.6308 2.29824C63.6308 1.42495 64.0764 0.908099 64.9675 0.747699C65.3952 0.658586 65.823 0.614029 66.2507 0.614029C66.6785 0.614029 67.0973 0.667497 67.5072 0.774432C67.9528 0.863543 68.2914 1.03286 68.5231 1.28237C68.7548 1.53188 68.8884 1.88833 68.9241 2.35171C68.9597 2.88638 68.9775 3.51016 68.9775 4.22306C68.9954 4.91813 69.0043 5.54191 69.0043 6.09441C69.0399 7.00335 69.0577 7.91229 69.0577 8.82123C69.0577 9.73017 69.0577 10.6391 69.0577 11.548C69.0756 12.1718 69.0845 12.8045 69.0845 13.4461C69.0845 14.0877 69.0934 14.7204 69.1112 15.3442C69.129 16.1284 69.1468 16.9037 69.1647 17.67C69.1825 18.4186 69.2003 19.176 69.2181 19.9424C69.2181 20.2988 69.1736 20.6285 69.0845 20.9315C68.9954 21.2345 68.7726 21.4305 68.4161 21.5197C67.8458 21.6979 67.3111 21.787 66.8121 21.787C66.3131 21.787 65.8052 21.787 65.2883 21.787C64.8784 21.8226 64.5398 21.7513 64.2724 21.5731C64.0051 21.3949 63.7823 21.1365 63.6041 20.7978C63.515 20.6196 63.4259 20.4503 63.3368 20.2899C63.2476 20.1117 63.1674 19.9424 63.0962 19.782C62.811 19.0334 62.4813 18.3116 62.107 17.6166C61.7506 16.9037 61.3407 16.2264 60.8773 15.5848C60.4139 14.961 60.004 14.3194 59.6475 13.66C59.2911 12.9827 58.899 12.3322 58.4713 11.7084C58.4356 11.6728 58.4089 11.6461 58.3911 11.6282C58.3911 11.5926 58.3732 11.557 58.3376 11.5213C58.3198 11.5213 58.3019 11.5302 58.2841 11.548C58.2841 11.548 58.2663 11.548 58.2307 11.548ZM85.3738 14.9967C85.2134 15.6739 84.9549 16.3779 84.5985 17.1086C84.242 17.8215 83.7608 18.4988 83.1549 19.1404C82.5667 19.7642 81.8538 20.3166 81.0162 20.7978C80.1964 21.2612 79.2429 21.5731 78.1557 21.7335C76.9794 21.8761 75.8299 21.8672 74.7071 21.7068C74.4219 21.6533 74.1457 21.5642 73.8783 21.4395C73.6288 21.3147 73.406 21.1543 73.21 20.9583C72.7823 20.5305 72.5773 20.0582 72.5951 19.5414C72.6129 18.8463 72.6397 18.1512 72.6753 17.4562C72.711 16.7611 72.711 16.066 72.6753 15.3709C72.6397 13.3748 72.604 11.5124 72.5684 9.78363C72.5327 8.03704 72.5149 6.30827 72.5149 4.59733C72.5327 4.18741 72.5417 3.7775 72.5417 3.36758C72.5417 2.93985 72.5417 2.51211 72.5417 2.08437C72.5595 1.60317 72.6397 1.28237 72.7823 1.12197C72.9427 0.943744 73.2546 0.810075 73.7179 0.720964C75.3041 0.435807 76.8992 0.489274 78.5032 0.881366C80.1964 1.27346 81.5687 1.95071 82.6202 2.91311C83.6895 3.87552 84.4826 5.00724 84.9995 6.30827C85.5163 7.60931 85.7926 9.01727 85.8282 10.5322C85.8639 12.0471 85.7124 13.5352 85.3738 14.9967ZM77.4606 16.2264C77.7993 16.2621 78.0933 16.2353 78.3428 16.1462C78.6102 16.0571 78.8686 15.9234 79.1181 15.7452C79.4924 15.4601 79.7864 15.1214 80.0003 14.7293C80.2142 14.3194 80.3746 13.8917 80.4815 13.4461C80.6063 12.9827 80.6865 12.5194 80.7221 12.056C80.7578 11.5748 80.7845 11.1292 80.8023 10.7193C80.8023 10.0599 80.7489 9.40936 80.6419 8.76776C80.5528 8.10833 80.3746 7.5291 80.1073 7.03008C79.8577 6.53105 79.5013 6.14787 79.0379 5.88054C78.5924 5.6132 78.022 5.54191 77.327 5.66667C77.5052 7.43108 77.5943 9.18658 77.5943 10.9332C77.5943 12.6798 77.5497 14.4442 77.4606 16.2264ZM99.0835 17.0284C100.117 16.9928 100.643 17.4472 100.661 18.3918C100.679 18.8552 100.67 19.2562 100.634 19.5948C100.616 19.9335 100.589 20.3256 100.554 20.7711C100.483 21.3949 100.108 21.7246 99.431 21.7603C97.8092 21.7959 96.2675 21.8405 94.8061 21.8939C93.3625 21.9652 91.9723 21.9028 90.6357 21.7068C90.2436 21.6533 89.9228 21.4929 89.6733 21.2256C89.4416 20.9583 89.3168 20.6196 89.299 20.2097C89.2099 17.2868 89.1564 14.462 89.1386 11.7352C89.1208 9.00836 89.1029 6.45085 89.0851 4.06266C89.0851 3.68839 89.094 3.31412 89.1119 2.93985C89.1297 2.54776 89.1831 2.19131 89.2723 1.87051C89.3792 1.5497 89.5396 1.29128 89.7535 1.09523C89.9851 0.881366 90.3149 0.765521 90.7426 0.747699C91.206 0.729875 91.6694 0.729875 92.1327 0.747699C92.5961 0.747699 93.0595 0.738787 93.5229 0.720964C93.8259 0.720964 94.111 0.712053 94.3784 0.694231C94.6635 0.676408 94.9487 0.658586 95.2338 0.640764C95.8041 0.605119 96.3566 0.569474 96.8913 0.53383C97.4438 0.498185 97.9874 0.471451 98.5221 0.453629C98.8607 0.453629 99.2082 0.54274 99.5647 0.720964C99.9389 0.881365 100.18 1.12197 100.286 1.44277C100.589 2.36953 100.652 3.26956 100.474 4.14286C100.42 4.53495 100.26 4.88248 99.9924 5.18546C99.7429 5.48844 99.3597 5.62211 98.8429 5.58647C98.3795 5.55082 97.925 5.52409 97.4794 5.50627C97.0339 5.48844 96.5794 5.47062 96.116 5.4528C95.4744 5.4528 95.0021 5.48845 94.6992 5.55973C94.3962 5.6132 94.1734 5.71122 94.0308 5.8538C93.9061 5.99638 93.817 6.20134 93.7635 6.46867C93.7278 6.71819 93.71 7.0479 93.71 7.45782C93.7278 7.84991 93.7278 8.34002 93.71 8.92816C93.71 9.23114 93.8348 9.42719 94.0843 9.5163C94.3516 9.58759 94.61 9.62323 94.8596 9.62323C95.3229 9.62323 95.7596 9.62323 96.1695 9.62323C96.5794 9.62323 96.9893 9.64996 97.3992 9.70343C97.6488 9.73908 97.8537 9.82819 98.0141 9.97077C98.1923 10.1133 98.2904 10.3272 98.3082 10.6124C98.326 10.9688 98.3438 11.3253 98.3617 11.6817C98.3973 12.0382 98.4062 12.3946 98.3884 12.7511C98.3527 13.5531 97.9072 13.9541 97.0517 13.9541C96.8378 13.9541 96.624 13.9452 96.4101 13.9273C96.1962 13.9095 95.9913 13.8917 95.7952 13.8739C95.5635 13.856 95.3319 13.8471 95.1002 13.8471C94.8863 13.8293 94.6635 13.8293 94.4318 13.8471C94.2001 13.865 94.0397 13.9184 93.9506 14.0075C93.8615 14.0788 93.817 14.2303 93.817 14.462C93.817 14.765 93.808 15.068 93.7902 15.3709C93.7902 15.6561 93.7991 15.9591 93.817 16.2799C93.8348 16.6363 93.8972 16.868 94.0041 16.975C94.1288 17.0819 94.3694 17.1354 94.7259 17.1354C95.4031 17.1354 95.9735 17.1354 96.4368 17.1354C96.9002 17.1175 97.2923 17.1086 97.6131 17.1086C97.9339 17.0908 98.2013 17.073 98.4151 17.0552C98.6468 17.0373 98.8696 17.0284 99.0835 17.0284ZM117.086 7.37761C116.837 7.71624 116.543 8.0014 116.204 8.23309C115.866 8.46478 115.527 8.60736 115.188 8.66082C114.85 8.71429 114.529 8.66974 114.226 8.52716C113.923 8.36676 113.673 8.07269 113.477 7.64495C113.353 7.35979 113.219 7.08355 113.076 6.81621C112.934 6.54887 112.782 6.29045 112.622 6.04094C112.444 5.7736 112.212 5.54191 111.927 5.34587C111.446 4.95377 110.956 4.92704 110.456 5.26566C110.207 5.40824 110.02 5.59538 109.895 5.82707C109.788 6.05876 109.735 6.29936 109.735 6.54888C109.735 6.79839 109.779 7.0479 109.868 7.29741C109.957 7.5291 110.1 7.72515 110.296 7.88555C110.653 8.17071 111.009 8.44696 111.365 8.71429C111.74 8.98163 112.114 9.24005 112.488 9.48956C112.934 9.81037 113.397 10.1133 113.878 10.3985C114.36 10.6837 114.805 10.9866 115.215 11.3074C116.017 11.9312 116.596 12.653 116.953 13.4729C117.327 14.2749 117.496 15.1749 117.461 16.1729C117.425 16.9037 117.282 17.5809 117.033 18.2047C116.801 18.8285 116.436 19.3988 115.937 19.9156C115.081 20.7889 114.137 21.3593 113.103 21.6266C112.087 21.9117 110.991 21.9296 109.815 21.6801C108.888 21.484 108.042 21.1543 107.275 20.6909C106.527 20.2097 105.832 19.6305 105.19 18.9532C104.816 18.5433 104.513 18.1067 104.281 17.6433C104.049 17.1621 103.871 16.6452 103.746 16.0927C103.639 15.5581 103.729 15.0234 104.014 14.4887C104.245 14.061 104.522 13.6956 104.842 13.3927C105.181 13.0897 105.6 12.8847 106.099 12.7778C106.509 12.6887 106.901 12.7243 107.275 12.8847C107.649 13.0273 107.935 13.2768 108.131 13.6333C108.273 13.865 108.398 14.0966 108.505 14.3283C108.612 14.56 108.719 14.8006 108.826 15.0501C109.022 15.4779 109.307 15.8343 109.681 16.1195C110.073 16.3868 110.456 16.565 110.831 16.6542C111.223 16.7254 111.57 16.6898 111.873 16.5472C112.194 16.3868 112.381 16.0838 112.435 15.6383C112.47 15.3175 112.399 14.9788 112.221 14.6224C112.061 14.2481 111.811 13.9362 111.472 13.6867C111.062 13.4016 110.653 13.1164 110.243 12.8313C109.833 12.5461 109.414 12.2788 108.986 12.0292C107.632 11.2451 106.446 10.2381 105.431 9.00836C104.914 8.25982 104.611 7.47564 104.522 6.65581C104.45 5.81816 104.548 5.01615 104.816 4.24979C105.083 3.48343 105.52 2.80618 106.126 2.21804C106.732 1.6299 107.471 1.20217 108.345 0.934832C109.325 0.649675 110.269 0.498185 111.178 0.480362C112.105 0.46254 112.943 0.605119 113.691 0.908099C114.244 1.13979 114.823 1.47841 115.429 1.92397C116.053 2.36953 116.57 2.88638 116.979 3.47452C117.389 4.04483 117.639 4.66862 117.728 5.34587C117.817 6.02312 117.603 6.70036 117.086 7.37761Z" fill="#F5F5F5"/>
<path d="M44.394 18.2849C43.5563 18.3384 42.7365 18.3829 41.9345 18.4186C41.1325 18.4542 40.3216 18.4899 39.5017 18.5255C39.4661 18.8285 39.4304 19.1225 39.3948 19.4077C39.3591 19.675 39.3324 19.9602 39.3146 20.2632C39.2789 20.7444 39.1185 21.1008 38.8334 21.3325C38.5661 21.582 38.2274 21.7424 37.8175 21.8137C36.9977 21.9028 36.1868 21.9028 35.3848 21.8137C34.9927 21.7781 34.6986 21.6266 34.5026 21.3593C34.3065 21.0919 34.2085 20.7622 34.2085 20.3701C34.1907 19.0869 34.1996 17.67 34.2352 16.1195C34.2887 14.5511 34.4224 12.9917 34.6362 11.4411C34.8501 9.87274 35.1798 8.38458 35.6254 6.97661C36.0709 5.56865 36.6947 4.37455 37.4967 3.39432C38.1027 2.64578 38.7977 2.022 39.5819 1.52297C40.3661 1.02394 41.2127 0.747698 42.1216 0.694231C42.9236 0.640763 43.6543 0.756609 44.3138 1.04177C44.9732 1.3091 45.5613 1.70119 46.0782 2.21804C46.595 2.71707 47.0406 3.30521 47.4149 3.98246C47.8069 4.65971 48.1367 5.36369 48.404 6.09441C48.6891 6.8073 48.9119 7.52019 49.0723 8.23309C49.2506 8.94598 49.3753 9.5965 49.4466 10.1846C49.6426 11.8065 49.7407 13.4105 49.7407 14.9967C49.7407 16.5829 49.705 18.1869 49.6337 19.8087C49.5981 20.2186 49.5179 20.6196 49.3931 21.0117C49.2684 21.386 48.9832 21.6088 48.5377 21.6801C48.1099 21.7157 47.6733 21.7424 47.2277 21.7603C46.8 21.7781 46.3544 21.787 45.891 21.787C45.4277 21.7692 45.1069 21.6533 44.9286 21.4395C44.7504 21.2434 44.6435 20.878 44.6078 20.3434C44.5722 19.9691 44.5365 19.6216 44.5009 19.3008C44.4653 18.9621 44.4296 18.6235 44.394 18.2849ZM44.0732 13.6867C44.0732 13.259 44.0553 12.7689 44.0197 12.2164C44.0019 11.6639 43.9573 11.1025 43.886 10.5322C43.7078 9.17767 43.4137 8.18853 43.0038 7.56475C42.6117 6.94097 42.2285 6.67363 41.8543 6.76274C41.6226 6.81621 41.3998 6.98552 41.1859 7.27068C40.9721 7.55584 40.7671 7.91229 40.5711 8.34002C40.3928 8.74994 40.2324 9.21332 40.0899 9.73017C39.9473 10.2292 39.8225 10.7371 39.7156 11.254C39.6265 11.753 39.5552 12.2431 39.5017 12.7243C39.4483 13.1877 39.4304 13.5887 39.4483 13.9273C40.2681 13.8917 41.0523 13.856 41.8008 13.8204C42.5493 13.7669 43.3068 13.7224 44.0732 13.6867Z" fill="#A965FF"/>
</svg>
