<svg width="120" height="36" viewBox="0 0 120 36" fill="none" xmlns="http://www.w3.org/2000/svg">
<path d="M12.8083 21.8262C13.5568 22.5035 14.1182 23.2788 14.4925 24.1521C14.8668 25.0254 15.0717 25.9521 15.1074 26.9323C15.1074 27.7522 14.9024 28.5096 14.4925 29.2047C14.1004 29.8819 13.5925 30.4701 12.9687 30.9691C12.3449 31.4681 11.6498 31.8691 10.8835 32.1721C10.1349 32.4751 9.41313 32.6533 8.71806 32.7068C7.96952 32.7424 7.22098 32.7781 6.47244 32.8137C5.7239 32.8672 4.96645 32.9117 4.20009 32.9474C4.00405 32.9652 3.79909 32.9563 3.58522 32.9207C3.38917 32.885 3.19313 32.8494 2.99708 32.8137C2.03468 32.5464 1.53565 31.9137 1.5 30.9156C1.5 30.5236 1.50892 30.1493 1.52674 29.7928C1.54456 29.4364 1.55347 29.071 1.55347 28.6968C1.57129 28.1799 1.58021 27.6631 1.58021 27.1462C1.58021 26.6115 1.58021 26.0858 1.58021 25.5689C1.56238 24.4996 1.54456 23.4481 1.52674 22.4144C1.50892 21.3629 1.48218 20.3024 1.44654 19.2331C1.41089 18.3954 1.35743 17.5756 1.28614 16.7736C1.21485 15.9538 1.14356 15.125 1.07227 14.2874C1.07227 13.8418 1.099 13.4676 1.15247 13.1646C1.22376 12.8438 1.3396 12.5853 1.5 12.3893C1.66041 12.1933 1.87427 12.0418 2.14161 11.9348C2.40895 11.8101 2.75648 11.7299 3.18422 11.6942C3.89711 11.6942 4.62783 11.7031 5.37637 11.721C6.14273 11.721 6.89127 11.7655 7.62198 11.8546C8.3527 11.9437 9.04777 12.0774 9.7072 12.2556C10.3844 12.4339 11.0082 12.6834 11.5785 13.0042C12.1489 13.3072 12.639 13.6814 13.0489 14.127C13.4588 14.5547 13.7707 15.0359 13.9846 15.5706C14.2163 16.1053 14.341 16.6756 14.3588 17.2815C14.3945 17.8875 14.3143 18.4935 14.1182 19.0994C13.94 19.6163 13.7529 20.0886 13.5568 20.5163C13.4677 20.748 13.3519 20.9708 13.2093 21.1846C13.0845 21.3807 12.9509 21.5945 12.8083 21.8262ZM6.25857 27.5472C6.68631 27.6185 7.08731 27.6007 7.46158 27.4938C7.83585 27.3868 8.21012 27.2353 8.58439 27.0393C8.78044 26.9145 8.94084 26.763 9.0656 26.5848C9.20817 26.4066 9.26164 26.166 9.226 25.863C9.17253 25.2749 8.88737 24.9006 8.37052 24.7402C8.01408 24.6154 7.64872 24.5352 7.27445 24.4996C6.918 24.4639 6.56155 24.5263 6.20511 24.6867V27.0927C6.20511 27.1819 6.21402 27.2621 6.23184 27.3333C6.24966 27.4046 6.25857 27.4759 6.25857 27.5472ZM6.04471 19.3668C6.32986 19.4024 6.63284 19.4024 6.95365 19.3668C7.27445 19.3311 7.56852 19.2509 7.83585 19.1262C8.10319 19.0014 8.31706 18.8321 8.47746 18.6182C8.65568 18.4043 8.73588 18.1281 8.71806 17.7895C8.66459 17.4152 8.54875 17.1122 8.37052 16.8805C8.1923 16.6488 7.9517 16.5152 7.64872 16.4795C7.41703 16.4439 7.18534 16.435 6.95365 16.4528C6.73978 16.4528 6.517 16.4617 6.28531 16.4795C6.01797 16.5152 5.89322 16.6667 5.91104 16.934C5.94668 17.3261 5.96451 17.7271 5.96451 18.137C5.98233 18.5291 6.00906 18.939 6.04471 19.3668ZM26.6652 25.7828C26.8078 25.9076 26.9326 26.0323 27.0395 26.1571C27.1464 26.2818 27.2712 26.3888 27.4138 26.4779C27.7702 26.7274 28.1267 26.9591 28.4831 27.1729C28.8574 27.3868 29.2406 27.6007 29.6327 27.8146C29.8465 27.9393 30.0604 28.0462 30.2743 28.1354C30.4881 28.2066 30.702 28.2868 30.9159 28.376C31.3258 28.572 31.5931 28.777 31.7179 28.9908C31.8426 29.1869 31.8872 29.5166 31.8515 29.98C31.8159 30.6929 31.5931 31.3345 31.1832 31.9048C30.7198 32.5464 30.096 32.8137 29.3119 32.7068C28.7415 32.6533 28.1891 32.5107 27.6544 32.2791C27.1197 32.0652 26.6385 31.7622 26.2108 31.3701C25.8009 30.9958 25.4088 30.6127 25.0345 30.2206C24.6602 29.8107 24.286 29.4097 23.9117 29.0176C23.7869 28.875 23.6711 28.7413 23.5642 28.6166C23.4572 28.474 23.3146 28.3492 23.1364 28.2423C23.1542 28.5631 23.1721 28.8928 23.1899 29.2314C23.2255 29.5522 23.2433 29.8819 23.2433 30.2206C23.2612 30.4701 23.2701 30.7285 23.2701 30.9958C23.2701 31.2632 23.2523 31.5216 23.2166 31.7711C23.181 32.1097 23.0829 32.3593 22.9225 32.5197C22.78 32.6801 22.5483 32.787 22.2275 32.8405C21.8354 32.8761 21.4522 32.9028 21.0779 32.9207C20.7037 32.9563 20.3205 32.9563 19.9284 32.9207C19.1799 32.8672 18.761 32.4305 18.6719 31.6107C18.6363 31.2721 18.6006 30.9424 18.565 30.6216C18.5472 30.2829 18.5382 29.9443 18.5382 29.6057C18.467 26.7719 18.4135 24.0184 18.3778 21.345C18.36 18.6717 18.3957 15.9894 18.4848 13.2982C18.4848 13.1913 18.4937 13.0933 18.5115 13.0042C18.5293 12.8972 18.5561 12.7903 18.5917 12.6834C18.7165 12.2735 18.9838 12.0418 19.3937 11.9883C20.6056 11.8101 21.8532 11.8012 23.1364 11.9616C23.4216 11.9972 23.6978 12.0329 23.9652 12.0685C24.2503 12.0863 24.5444 12.122 24.8474 12.1754C27.1108 12.6388 28.795 13.6101 29.9 15.0894C31.005 16.5508 31.4238 18.3776 31.1565 20.5698C30.9783 21.8886 30.5149 23.0292 29.7663 23.9917C29.0178 24.9541 27.9841 25.5511 26.6652 25.7828ZM23.1631 22.3074C23.2523 22.3253 23.3235 22.3431 23.377 22.3609C23.4483 22.3787 23.5107 22.3876 23.5642 22.3876C24.1166 22.352 24.6068 22.2005 25.0345 21.9332C25.4622 21.6658 25.8009 21.3361 26.0504 20.944C26.2999 20.5519 26.4425 20.1242 26.4781 19.6608C26.5316 19.1796 26.4425 18.7073 26.2108 18.2439C26.1038 17.9944 25.9345 17.7717 25.7028 17.5756C25.4711 17.3617 25.2127 17.1924 24.9276 17.0677C24.6424 16.9429 24.3394 16.8627 24.0186 16.8271C23.7156 16.7736 23.4305 16.7825 23.1631 16.8538V22.3074ZM59.2307 22.548C59.2841 23.7778 59.3287 24.9897 59.3643 26.1838C59.4178 27.3779 59.4623 28.5809 59.498 29.7928C59.5158 30.1315 59.5158 30.4701 59.498 30.8087C59.4802 31.1473 59.4623 31.477 59.4445 31.7978C59.4089 32.3682 59.1148 32.6979 58.5623 32.787C58.4376 32.8226 58.3128 32.8494 58.188 32.8672C58.0633 32.885 57.9385 32.8939 57.8138 32.8939C57.4573 32.8761 57.1098 32.8583 56.7712 32.8405C56.4504 32.8405 56.1207 32.8315 55.782 32.8137C54.8018 32.7246 54.285 32.2078 54.2315 31.2632C54.2137 30.9246 54.2137 30.5948 54.2315 30.274C54.2493 29.9354 54.2671 29.5968 54.285 29.2582C54.3206 28.5809 54.3562 27.9037 54.3919 27.2264C54.4275 26.5313 54.4632 25.8452 54.4988 25.1679C54.5345 24.1521 54.5701 23.1451 54.6058 22.147C54.6592 21.149 54.686 20.1509 54.686 19.1529C54.7038 18.2083 54.6949 17.237 54.6592 16.2389C54.6236 15.2231 54.5879 14.2428 54.5523 13.2982C54.5166 12.7279 54.579 12.3269 54.7394 12.0952C54.9176 11.8457 55.2919 11.7031 55.8622 11.6675C56.6821 11.614 57.5554 11.6586 58.4821 11.8012C58.7851 11.8368 59.0435 11.9616 59.2574 12.1754C59.4713 12.3893 59.6762 12.6299 59.8723 12.8972C60.0327 13.1111 60.1752 13.3339 60.3 13.5656C60.4426 13.7794 60.5852 14.0111 60.7277 14.2607C61.3515 15.4904 61.9842 16.7736 62.6258 18.1103C63.2852 19.4291 63.9714 20.6411 64.6843 21.746C64.6843 21.2827 64.6843 20.8104 64.6843 20.3292C64.7021 19.848 64.7021 19.3757 64.6843 18.9123C64.6843 18.039 64.6754 17.1033 64.6576 16.1053C64.6397 15.0894 64.6308 14.1537 64.6308 13.2982C64.6308 12.4249 65.0764 11.9081 65.9675 11.7477C66.3952 11.6586 66.823 11.614 67.2507 11.614C67.6785 11.614 68.0973 11.6675 68.5072 11.7744C68.9528 11.8635 69.2914 12.0329 69.5231 12.2824C69.7548 12.5319 69.8884 12.8883 69.9241 13.3517C69.9597 13.8864 69.9775 14.5102 69.9775 15.2231C69.9954 15.9181 70.0043 16.5419 70.0043 17.0944C70.0399 18.0033 70.0577 18.9123 70.0577 19.8212C70.0577 20.7302 70.0577 21.6391 70.0577 22.548C70.0756 23.1718 70.0845 23.8045 70.0845 24.4461C70.0845 25.0877 70.0934 25.7204 70.1112 26.3442C70.129 27.1284 70.1468 27.9037 70.1647 28.67C70.1825 29.4186 70.2003 30.176 70.2181 30.9424C70.2181 31.2988 70.1736 31.6285 70.0845 31.9315C69.9954 32.2345 69.7726 32.4305 69.4161 32.5197C68.8458 32.6979 68.3111 32.787 67.8121 32.787C67.3131 32.787 66.8052 32.787 66.2883 32.787C65.8784 32.8226 65.5398 32.7513 65.2724 32.5731C65.0051 32.3949 64.7823 32.1365 64.6041 31.7978C64.515 31.6196 64.4259 31.4503 64.3368 31.2899C64.2476 31.1117 64.1674 30.9424 64.0962 30.782C63.811 30.0334 63.4813 29.3116 63.107 28.6166C62.7506 27.9037 62.3407 27.2264 61.8773 26.5848C61.4139 25.961 61.004 25.3194 60.6475 24.66C60.2911 23.9827 59.899 23.3322 59.4713 22.7084C59.4356 22.6728 59.4089 22.6461 59.3911 22.6282C59.3911 22.5926 59.3732 22.557 59.3376 22.5213C59.3198 22.5213 59.3019 22.5302 59.2841 22.548C59.2841 22.548 59.2663 22.548 59.2307 22.548ZM86.3738 25.9967C86.2134 26.6739 85.9549 27.3779 85.5985 28.1086C85.242 28.8215 84.7608 29.4988 84.1549 30.1404C83.5667 30.7642 82.8538 31.3166 82.0162 31.7978C81.1964 32.2612 80.2429 32.5731 79.1557 32.7335C77.9794 32.8761 76.8299 32.8672 75.7071 32.7068C75.4219 32.6533 75.1457 32.5642 74.8783 32.4395C74.6288 32.3147 74.406 32.1543 74.21 31.9583C73.7823 31.5305 73.5773 31.0582 73.5951 30.5414C73.6129 29.8463 73.6397 29.1512 73.6753 28.4562C73.711 27.7611 73.711 27.066 73.6753 26.3709C73.6397 24.3748 73.604 22.5124 73.5684 20.7836C73.5327 19.037 73.5149 17.3083 73.5149 15.5973C73.5327 15.1874 73.5417 14.7775 73.5417 14.3676C73.5417 13.9398 73.5417 13.5121 73.5417 13.0844C73.5595 12.6032 73.6397 12.2824 73.7823 12.122C73.9427 11.9437 74.2546 11.8101 74.7179 11.721C76.3041 11.4358 77.8992 11.4893 79.5032 11.8814C81.1964 12.2735 82.5687 12.9507 83.6202 13.9131C84.6895 14.8755 85.4826 16.0072 85.9995 17.3083C86.5163 18.6093 86.7926 20.0173 86.8282 21.5322C86.8639 23.0471 86.7124 24.5352 86.3738 25.9967ZM78.4606 27.2264C78.7993 27.2621 79.0933 27.2353 79.3428 27.1462C79.6102 27.0571 79.8686 26.9234 80.1181 26.7452C80.4924 26.4601 80.7864 26.1214 81.0003 25.7293C81.2142 25.3194 81.3746 24.8917 81.4815 24.4461C81.6063 23.9827 81.6865 23.5194 81.7221 23.056C81.7578 22.5748 81.7845 22.1292 81.8023 21.7193C81.8023 21.0599 81.7489 20.4094 81.6419 19.7678C81.5528 19.1083 81.3746 18.5291 81.1073 18.0301C80.8577 17.5311 80.5013 17.1479 80.0379 16.8805C79.5924 16.6132 79.022 16.5419 78.327 16.6667C78.5052 18.4311 78.5943 20.1866 78.5943 21.9332C78.5943 23.6798 78.5497 25.4442 78.4606 27.2264ZM100.083 28.0284C101.117 27.9928 101.643 28.4472 101.661 29.3918C101.679 29.8552 101.67 30.2562 101.634 30.5948C101.616 30.9335 101.589 31.3256 101.554 31.7711C101.483 32.3949 101.108 32.7246 100.431 32.7603C98.8092 32.7959 97.2675 32.8405 95.8061 32.8939C94.3625 32.9652 92.9723 32.9028 91.6357 32.7068C91.2436 32.6533 90.9228 32.4929 90.6733 32.2256C90.4416 31.9583 90.3168 31.6196 90.299 31.2097C90.2099 28.2868 90.1564 25.462 90.1386 22.7352C90.1208 20.0084 90.1029 17.4509 90.0851 15.0627C90.0851 14.6884 90.094 14.3141 90.1119 13.9398C90.1297 13.5478 90.1831 13.1913 90.2723 12.8705C90.3792 12.5497 90.5396 12.2913 90.7535 12.0952C90.9851 11.8814 91.3149 11.7655 91.7426 11.7477C92.206 11.7299 92.6694 11.7299 93.1327 11.7477C93.5961 11.7477 94.0595 11.7388 94.5229 11.721C94.8259 11.721 95.111 11.7121 95.3784 11.6942C95.6635 11.6764 95.9487 11.6586 96.2338 11.6408C96.8041 11.6051 97.3566 11.5695 97.8913 11.5338C98.4438 11.4982 98.9874 11.4715 99.5221 11.4536C99.8607 11.4536 100.208 11.5427 100.565 11.721C100.939 11.8814 101.18 12.122 101.286 12.4428C101.589 13.3695 101.652 14.2696 101.474 15.1429C101.42 15.5349 101.26 15.8825 100.992 16.1855C100.743 16.4884 100.36 16.6221 99.8429 16.5865C99.3795 16.5508 98.925 16.5241 98.4794 16.5063C98.0339 16.4884 97.5794 16.4706 97.116 16.4528C96.4744 16.4528 96.0021 16.4884 95.6992 16.5597C95.3962 16.6132 95.1734 16.7112 95.0308 16.8538C94.9061 16.9964 94.817 17.2013 94.7635 17.4687C94.7278 17.7182 94.71 18.0479 94.71 18.4578C94.7278 18.8499 94.7278 19.34 94.71 19.9282C94.71 20.2311 94.8348 20.4272 95.0843 20.5163C95.3516 20.5876 95.61 20.6232 95.8596 20.6232C96.3229 20.6232 96.7596 20.6232 97.1695 20.6232C97.5794 20.6232 97.9893 20.65 98.3992 20.7034C98.6488 20.7391 98.8537 20.8282 99.0141 20.9708C99.1923 21.1133 99.2904 21.3272 99.3082 21.6124C99.326 21.9688 99.3438 22.3253 99.3617 22.6817C99.3973 23.0382 99.4062 23.3946 99.3884 23.7511C99.3527 24.5531 98.9072 24.9541 98.0517 24.9541C97.8378 24.9541 97.624 24.9452 97.4101 24.9273C97.1962 24.9095 96.9913 24.8917 96.7952 24.8739C96.5635 24.856 96.3319 24.8471 96.1002 24.8471C95.8863 24.8293 95.6635 24.8293 95.4318 24.8471C95.2001 24.865 95.0397 24.9184 94.9506 25.0075C94.8615 25.0788 94.817 25.2303 94.817 25.462C94.817 25.765 94.808 26.068 94.7902 26.3709C94.7902 26.6561 94.7991 26.9591 94.817 27.2799C94.8348 27.6363 94.8972 27.868 95.0041 27.975C95.1288 28.0819 95.3694 28.1354 95.7259 28.1354C96.4031 28.1354 96.9735 28.1354 97.4368 28.1354C97.9002 28.1175 98.2923 28.1086 98.6131 28.1086C98.9339 28.0908 99.2013 28.073 99.4151 28.0552C99.6468 28.0373 99.8696 28.0284 100.083 28.0284ZM118.086 18.3776C117.837 18.7162 117.543 19.0014 117.204 19.2331C116.866 19.4648 116.527 19.6074 116.188 19.6608C115.85 19.7143 115.529 19.6697 115.226 19.5272C114.923 19.3668 114.673 19.0727 114.477 18.6449C114.353 18.3598 114.219 18.0835 114.076 17.8162C113.934 17.5489 113.782 17.2904 113.622 17.0409C113.444 16.7736 113.212 16.5419 112.927 16.3459C112.446 15.9538 111.956 15.927 111.456 16.2657C111.207 16.4082 111.02 16.5954 110.895 16.8271C110.788 17.0588 110.735 17.2994 110.735 17.5489C110.735 17.7984 110.779 18.0479 110.868 18.2974C110.957 18.5291 111.1 18.7251 111.296 18.8856C111.653 19.1707 112.009 19.447 112.365 19.7143C112.74 19.9816 113.114 20.2401 113.488 20.4896C113.934 20.8104 114.397 21.1133 114.878 21.3985C115.36 21.6837 115.805 21.9866 116.215 22.3074C117.017 22.9312 117.596 23.653 117.953 24.4729C118.327 25.2749 118.496 26.1749 118.461 27.1729C118.425 27.9037 118.282 28.5809 118.033 29.2047C117.801 29.8285 117.436 30.3988 116.937 30.9156C116.081 31.7889 115.137 32.3593 114.103 32.6266C113.087 32.9117 111.991 32.9296 110.815 32.6801C109.888 32.484 109.042 32.1543 108.275 31.6909C107.527 31.2097 106.832 30.6305 106.19 29.9532C105.816 29.5433 105.513 29.1067 105.281 28.6433C105.049 28.1621 104.871 27.6452 104.746 27.0927C104.639 26.5581 104.729 26.0234 105.014 25.4887C105.245 25.061 105.522 24.6956 105.842 24.3927C106.181 24.0897 106.6 23.8847 107.099 23.7778C107.509 23.6887 107.901 23.7243 108.275 23.8847C108.649 24.0273 108.935 24.2768 109.131 24.6333C109.273 24.865 109.398 25.0966 109.505 25.3283C109.612 25.56 109.719 25.8006 109.826 26.0501C110.022 26.4779 110.307 26.8343 110.681 27.1195C111.073 27.3868 111.456 27.565 111.831 27.6542C112.223 27.7254 112.57 27.6898 112.873 27.5472C113.194 27.3868 113.381 27.0838 113.435 26.6383C113.47 26.3175 113.399 25.9788 113.221 25.6224C113.061 25.2481 112.811 24.9362 112.472 24.6867C112.062 24.4016 111.653 24.1164 111.243 23.8313C110.833 23.5461 110.414 23.2788 109.986 23.0292C108.632 22.2451 107.446 21.2381 106.431 20.0084C105.914 19.2598 105.611 18.4756 105.522 17.6558C105.45 16.8182 105.548 16.0162 105.816 15.2498C106.083 14.4834 106.52 13.8062 107.126 13.218C107.732 12.6299 108.471 12.2022 109.345 11.9348C110.325 11.6497 111.269 11.4982 112.178 11.4804C113.105 11.4625 113.943 11.6051 114.691 11.9081C115.244 12.1398 115.823 12.4784 116.429 12.924C117.053 13.3695 117.57 13.8864 117.979 14.4745C118.389 15.0448 118.639 15.6686 118.728 16.3459C118.817 17.0231 118.603 17.7004 118.086 18.3776Z" fill="#F5F5F5"/>
<path d="M45.394 29.2849C44.5563 29.3384 43.7365 29.3829 42.9345 29.4186C42.1325 29.4542 41.3216 29.4899 40.5017 29.5255C40.4661 29.8285 40.4304 30.1225 40.3948 30.4077C40.3591 30.675 40.3324 30.9602 40.3146 31.2632C40.2789 31.7444 40.1185 32.1008 39.8334 32.3325C39.5661 32.582 39.2274 32.7424 38.8175 32.8137C37.9977 32.9028 37.1868 32.9028 36.3848 32.8137C35.9927 32.7781 35.6986 32.6266 35.5026 32.3593C35.3065 32.0919 35.2085 31.7622 35.2085 31.3701C35.1907 30.0869 35.1996 28.67 35.2352 27.1195C35.2887 25.5511 35.4224 23.9917 35.6362 22.4411C35.8501 20.8727 36.1798 19.3846 36.6254 17.9766C37.0709 16.5686 37.6947 15.3745 38.4967 14.3943C39.1027 13.6458 39.7977 13.022 40.5819 12.523C41.3661 12.0239 42.2127 11.7477 43.1216 11.6942C43.9236 11.6408 44.6543 11.7566 45.3138 12.0418C45.9732 12.3091 46.5613 12.7012 47.0782 13.218C47.595 13.7171 48.0406 14.3052 48.4149 14.9825C48.8069 15.6597 49.1367 16.3637 49.404 17.0944C49.6891 17.8073 49.9119 18.5202 50.0723 19.2331C50.2506 19.946 50.3753 20.5965 50.4466 21.1846C50.6426 22.8065 50.7407 24.4105 50.7407 25.9967C50.7407 27.5829 50.705 29.1869 50.6337 30.8087C50.5981 31.2186 50.5179 31.6196 50.3931 32.0117C50.2684 32.386 49.9832 32.6088 49.5377 32.6801C49.1099 32.7157 48.6733 32.7424 48.2277 32.7603C47.8 32.7781 47.3544 32.787 46.891 32.787C46.4277 32.7692 46.1069 32.6533 45.9286 32.4395C45.7504 32.2434 45.6435 31.878 45.6078 31.3434C45.5722 30.9691 45.5365 30.6216 45.5009 30.3008C45.4653 29.9621 45.4296 29.6235 45.394 29.2849ZM45.0732 24.6867C45.0732 24.259 45.0553 23.7689 45.0197 23.2164C45.0019 22.6639 44.9573 22.1025 44.886 21.5322C44.7078 20.1777 44.4137 19.1885 44.0038 18.5647C43.6117 17.941 43.2285 17.6736 42.8543 17.7627C42.6226 17.8162 42.3998 17.9855 42.1859 18.2707C41.9721 18.5558 41.7671 18.9123 41.5711 19.34C41.3928 19.7499 41.2324 20.2133 41.0899 20.7302C40.9473 21.2292 40.8225 21.7371 40.7156 22.254C40.6265 22.753 40.5552 23.2431 40.5017 23.7243C40.4483 24.1877 40.4304 24.5887 40.4483 24.9273C41.2681 24.8917 42.0523 24.856 42.8008 24.8204C43.5493 24.7669 44.3068 24.7224 45.0732 24.6867Z" fill="#A965FF"/>
<path d="M35.0744 4.76052C35.0707 4.55195 35.2368 4.37988 35.4454 4.37618C38.0525 4.32996 40.2035 6.406 40.2497 9.01313C40.2534 9.2217 40.0873 9.39378 39.8788 9.39747C37.2716 9.44369 35.1207 7.36766 35.0744 4.76052Z" fill="#FFC600"/>
<path d="M51.9949 4.46048C51.9912 4.2519 51.8191 4.08582 51.6105 4.08952C49.0034 4.13574 46.9273 6.2867 46.9736 8.89383C46.9773 9.1024 47.1493 9.26849 47.3579 9.26479C49.965 9.21857 52.0411 7.06761 51.9949 4.46048Z" fill="#FF4C00"/>
<path d="M43.1062 7.82229C43.2563 7.96716 43.4954 7.96292 43.6402 7.81282C45.4511 5.93662 45.3981 2.94768 43.5219 1.13684C43.3718 0.991976 43.1327 0.996215 42.9878 1.14631C41.177 3.02251 41.23 6.01145 43.1062 7.82229Z" fill="#3E9FFF"/>
</svg>
