<svg width="374" height="54" viewBox="0 0 374 54" fill="none" xmlns="http://www.w3.org/2000/svg">
<path d="M19.8513 33.4694C21.0109 34.5185 21.8806 35.7195 22.4604 37.0723C23.0401 38.4252 23.3577 39.8609 23.4129 41.3794C23.4129 42.6494 23.0954 43.8228 22.4604 44.8995C21.853 45.9487 21.0661 46.8598 20.0998 47.6328C19.1335 48.4059 18.0567 49.0271 16.8695 49.4965C15.7099 49.9658 14.5918 50.2419 13.515 50.3247C12.3554 50.3799 11.1958 50.4352 10.0362 50.4904C8.87666 50.5732 7.70328 50.6422 6.51608 50.6975C6.21238 50.7251 5.89488 50.7113 5.56357 50.656C5.25987 50.6008 4.95617 50.5456 4.65247 50.4904C3.16157 50.0762 2.38852 49.0961 2.3333 47.55C2.3333 46.9426 2.3471 46.3628 2.37471 45.8106C2.40232 45.2585 2.41613 44.6925 2.41613 44.1127C2.44374 43.312 2.45754 42.5113 2.45754 41.7107C2.45754 40.8824 2.45754 40.0679 2.45754 39.2673C2.42993 37.6107 2.40232 35.9818 2.37471 34.3805C2.3471 32.7515 2.30569 31.1088 2.25047 29.4522C2.19525 28.1546 2.11243 26.8846 2.00199 25.6422C1.89155 24.3721 1.78112 23.0883 1.67068 21.7907C1.67068 21.1005 1.71209 20.5207 1.79492 20.0513C1.90536 19.5544 2.08482 19.154 2.3333 18.8503C2.58178 18.5466 2.91309 18.3119 3.32723 18.1463C3.74137 17.953 4.27974 17.8288 4.94236 17.7736C6.04673 17.7736 7.1787 17.7874 8.33829 17.815C9.52548 17.815 10.6851 17.884 11.817 18.022C12.949 18.1601 14.0258 18.3672 15.0473 18.6433C16.0964 18.9193 17.0628 19.3059 17.9463 19.8028C18.8298 20.2722 19.589 20.852 20.224 21.5422C20.859 22.2048 21.3422 22.9503 21.6735 23.7786C22.0324 24.6068 22.2257 25.4903 22.2533 26.429C22.3085 27.3677 22.1843 28.3064 21.8806 29.2452C21.6045 30.0458 21.3146 30.7775 21.0109 31.4401C20.8728 31.799 20.6934 32.1441 20.4725 32.4754C20.2792 32.7791 20.0722 33.1104 19.8513 33.4694ZM9.70494 42.3319C10.3676 42.4423 10.9888 42.4147 11.5686 42.2491C12.1483 42.0834 12.7281 41.8487 13.3079 41.545C13.6116 41.3518 13.8601 41.1171 14.0534 40.841C14.2742 40.5649 14.3571 40.1922 14.3019 39.7228C14.219 38.8117 13.7773 38.2319 12.9766 37.9834C12.4244 37.7902 11.8584 37.6659 11.2787 37.6107C10.7265 37.5555 10.1743 37.6521 9.62211 37.9006V41.6279C9.62211 41.7659 9.63591 41.8901 9.66352 42.0006C9.69113 42.111 9.70494 42.2214 9.70494 42.3319ZM9.37363 29.6593C9.81537 29.7145 10.2847 29.7145 10.7817 29.6593C11.2787 29.6041 11.7342 29.4798 12.1483 29.2866C12.5625 29.0933 12.8938 28.831 13.1423 28.4997C13.4184 28.1684 13.5426 27.7405 13.515 27.2159C13.4322 26.6361 13.2527 26.1667 12.9766 25.8078C12.7005 25.4489 12.3278 25.2418 11.8584 25.1866C11.4995 25.1314 11.1406 25.1176 10.7817 25.1452C10.4504 25.1452 10.1053 25.159 9.74635 25.1866C9.33221 25.2418 9.13895 25.4765 9.16656 25.8907C9.22178 26.4981 9.24939 27.1193 9.24939 27.7543C9.277 28.3617 9.31841 28.9967 9.37363 29.6593ZM41.3175 39.5986C41.5384 39.7918 41.7316 39.9851 41.8973 40.1784C42.0629 40.3716 42.2562 40.5373 42.4771 40.6753C43.0293 41.0619 43.5814 41.4208 44.1336 41.7521C44.7134 42.0834 45.307 42.4147 45.9144 42.746C46.2457 42.9393 46.577 43.1049 46.9083 43.243C47.2397 43.3534 47.571 43.4777 47.9023 43.6157C48.5373 43.9194 48.9514 44.2369 49.1447 44.5682C49.3379 44.8719 49.407 45.3827 49.3518 46.1005C49.2965 47.2049 48.9514 48.1988 48.3164 49.0823C47.5986 50.0762 46.6323 50.4904 45.4175 50.3247C44.534 50.2419 43.6781 50.021 42.8498 49.6621C42.0215 49.3308 41.2761 48.8614 40.6135 48.254C39.9785 47.6743 39.3711 47.0807 38.7913 46.4733C38.2115 45.8382 37.6317 45.217 37.0519 44.6096C36.8586 44.3888 36.6792 44.1817 36.5135 43.9884C36.3479 43.7676 36.127 43.5743 35.8509 43.4086C35.8785 43.9056 35.9061 44.4164 35.9337 44.9409C35.9889 45.4379 36.0165 45.9487 36.0165 46.4733C36.0442 46.8598 36.058 47.2601 36.058 47.6743C36.058 48.0884 36.0303 48.4887 35.9751 48.8752C35.9199 49.3998 35.7681 49.7864 35.5196 50.0348C35.2987 50.2833 34.9398 50.449 34.4428 50.5318C33.8354 50.587 33.2418 50.6284 32.662 50.656C32.0822 50.7113 31.4886 50.7113 30.8812 50.656C29.7217 50.5732 29.0728 49.8968 28.9348 48.6268C28.8796 48.1022 28.8244 47.5914 28.7691 47.0945C28.7415 46.5699 28.7277 46.0453 28.7277 45.5207C28.6173 41.1309 28.5345 36.8653 28.4793 32.7239C28.4516 28.5825 28.5069 24.4274 28.6449 20.2584C28.6449 20.0927 28.6587 19.9409 28.6863 19.8028C28.7139 19.6372 28.7553 19.4715 28.8106 19.3059C29.0038 18.6709 29.418 18.3119 30.053 18.2291C31.9304 17.953 33.863 17.9392 35.8509 18.1877C36.2926 18.2429 36.7206 18.2981 37.1347 18.3534C37.5765 18.381 38.032 18.4362 38.5014 18.519C42.0077 19.2369 44.6168 20.7415 46.3286 23.0331C48.0403 25.2971 48.6891 28.127 48.275 31.5229C47.9989 33.566 47.2811 35.333 46.1215 36.8239C44.9619 38.3148 43.3606 39.2397 41.3175 39.5986ZM35.8923 34.2148C36.0303 34.2424 36.1408 34.27 36.2236 34.2976C36.334 34.3252 36.4307 34.339 36.5135 34.339C37.3694 34.2838 38.1286 34.0491 38.7913 33.635C39.4539 33.2209 39.9785 32.7101 40.365 32.1027C40.7515 31.4953 40.9724 30.8327 41.0276 30.1148C41.1104 29.3694 40.9724 28.6378 40.6135 27.9199C40.4478 27.5334 40.1855 27.1883 39.8266 26.8846C39.4677 26.5533 39.0674 26.291 38.6256 26.0977C38.1839 25.9045 37.7145 25.7802 37.2175 25.725C36.7482 25.6422 36.3064 25.656 35.8923 25.7664V34.2148ZM70.3307 45.0238C69.0331 45.1066 67.763 45.1756 66.5206 45.2308C65.2782 45.2861 64.022 45.3413 62.752 45.3965C62.6968 45.8659 62.6416 46.3214 62.5863 46.7632C62.5311 47.1773 62.4897 47.619 62.4621 48.0884C62.4069 48.8338 62.1584 49.386 61.7166 49.7449C61.3025 50.1315 60.7779 50.3799 60.1429 50.4904C58.8729 50.6284 57.6167 50.6284 56.3743 50.4904C55.7669 50.4352 55.3113 50.2005 55.0076 49.7864C54.7039 49.3722 54.5521 48.8614 54.5521 48.254C54.5245 46.2662 54.5383 44.0713 54.5935 41.6693C54.6763 39.2397 54.8834 36.8239 55.2147 34.4219C55.546 31.9923 56.0568 29.6869 56.747 27.5058C57.4372 25.3247 58.4036 23.4749 59.646 21.9564C60.5847 20.7968 61.6614 19.8304 62.8762 19.0574C64.091 18.2843 65.4025 17.8564 66.8105 17.7736C68.0529 17.6907 69.1849 17.8702 70.2065 18.3119C71.228 18.7261 72.1391 19.3335 72.9398 20.1341C73.7404 20.9072 74.4307 21.8183 75.0104 22.8675C75.6178 23.9166 76.1286 25.0072 76.5428 26.1391C76.9845 27.2435 77.3296 28.3479 77.5781 29.4522C77.8542 30.5566 78.0474 31.5643 78.1579 32.4754C78.4616 34.9879 78.6134 37.4727 78.6134 39.9299C78.6134 42.3871 78.5582 44.8719 78.4478 47.3844C78.3926 48.0194 78.2683 48.6406 78.0751 49.248C77.8818 49.8278 77.44 50.1729 76.7498 50.2833C76.0872 50.3385 75.4108 50.3799 74.7205 50.4076C74.0579 50.4352 73.3677 50.449 72.6499 50.449C71.932 50.4214 71.4351 50.2419 71.159 49.9106C70.8829 49.6069 70.7172 49.0409 70.662 48.2126C70.6068 47.6328 70.5516 47.0945 70.4964 46.5975C70.4411 46.0729 70.3859 45.5483 70.3307 45.0238ZM69.8337 37.9006C69.8337 37.238 69.8061 36.4788 69.7509 35.6229C69.7233 34.767 69.6543 33.8973 69.5438 33.0138C69.2677 30.9155 68.8122 29.3832 68.1772 28.4169C67.5698 27.4506 66.9762 27.0364 66.3964 27.1745C66.0375 27.2573 65.6924 27.5196 65.3611 27.9613C65.0297 28.4031 64.7122 28.9553 64.4085 29.6179C64.1324 30.2529 63.884 30.9707 63.6631 31.7714C63.4422 32.5445 63.249 33.3313 63.0833 34.132C62.9453 34.905 62.8348 35.6643 62.752 36.4097C62.6692 37.1276 62.6416 37.7488 62.6692 38.2733C63.9392 38.2181 65.154 38.1629 66.3136 38.1077C67.4732 38.0249 68.6465 37.9558 69.8337 37.9006ZM91.7655 34.5875C91.8483 36.4926 91.9174 38.37 91.9726 40.2198C92.0554 42.0696 92.1244 43.9332 92.1797 45.8106C92.2073 46.3352 92.2073 46.8598 92.1797 47.3844C92.152 47.9089 92.1244 48.4197 92.0968 48.9167C92.0416 49.8002 91.5861 50.3109 90.7302 50.449C90.5369 50.5042 90.3436 50.5456 90.1504 50.5732C89.9571 50.6008 89.7639 50.6146 89.5706 50.6146C89.0184 50.587 88.48 50.5594 87.9555 50.5318C87.4585 50.5318 86.9477 50.518 86.4231 50.4904C84.9046 50.3523 84.104 49.5517 84.0212 48.0884C83.9935 47.5638 83.9935 47.053 84.0212 46.5561C84.0488 46.0315 84.0764 45.5069 84.104 44.9824C84.1592 43.9332 84.2144 42.8841 84.2696 41.8349C84.3249 40.7582 84.3801 39.6952 84.4353 38.6461C84.4905 37.0723 84.5457 35.5124 84.6009 33.9663C84.6838 32.4202 84.7252 30.8741 84.7252 29.328C84.7528 27.8647 84.739 26.36 84.6838 24.8139C84.6286 23.2402 84.5733 21.7217 84.5181 20.2584C84.4629 19.3749 84.5595 18.7537 84.808 18.3948C85.0841 18.0082 85.6639 17.7874 86.5474 17.7322C87.8174 17.6493 89.1703 17.7183 90.6059 17.9392C91.0753 17.9944 91.4756 18.1877 91.8069 18.519C92.1382 18.8503 92.4557 19.223 92.7594 19.6372C93.0079 19.9685 93.2288 20.3136 93.4221 20.6725C93.6429 21.0038 93.8638 21.3628 94.0847 21.7493C95.051 23.6543 96.0311 25.6422 97.0251 27.7129C98.0466 29.7559 99.1095 31.6333 100.214 33.3451C100.214 32.6273 100.214 31.8956 100.214 31.1502C100.242 30.4047 100.242 29.6731 100.214 28.9553C100.214 27.6024 100.2 26.1529 100.172 24.6068C100.145 23.0331 100.131 21.5836 100.131 20.2584C100.131 18.9055 100.821 18.1049 102.202 17.8564C102.864 17.7183 103.527 17.6493 104.19 17.6493C104.852 17.6493 105.501 17.7322 106.136 17.8978C106.826 18.0359 107.351 18.2981 107.71 18.6847C108.069 19.0712 108.276 19.6234 108.331 20.3412C108.386 21.1695 108.414 22.1358 108.414 23.2402C108.441 24.3169 108.455 25.2833 108.455 26.1391C108.51 27.5472 108.538 28.9553 108.538 30.3633C108.538 31.7714 108.538 33.1795 108.538 34.5875C108.566 35.5538 108.579 36.534 108.579 37.5279C108.579 38.5218 108.593 39.502 108.621 40.4683C108.648 41.6831 108.676 42.8841 108.704 44.0713C108.731 45.2308 108.759 46.4042 108.787 47.5914C108.787 48.1436 108.718 48.6544 108.579 49.1237C108.441 49.5931 108.096 49.8968 107.544 50.0348C106.661 50.3109 105.832 50.449 105.059 50.449C104.286 50.449 103.499 50.449 102.699 50.449C102.064 50.5042 101.539 50.3938 101.125 50.1177C100.711 49.8416 100.366 49.4412 100.09 48.9167C99.9516 48.6406 99.8136 48.3783 99.6755 48.1298C99.5375 47.8537 99.4132 47.5914 99.3028 47.3429C98.8611 46.1834 98.3503 45.0652 97.7705 43.9884C97.2183 42.8841 96.5833 41.8349 95.8655 40.841C95.1476 39.8747 94.5126 38.8807 93.9604 37.8592C93.4083 36.8101 92.8009 35.8023 92.1382 34.836C92.083 34.7808 92.0416 34.7394 92.014 34.7118C92.014 34.6565 91.9864 34.6013 91.9312 34.5461C91.9036 34.5461 91.876 34.5599 91.8483 34.5875C91.8483 34.5875 91.8207 34.5875 91.7655 34.5875ZM133.814 39.9299C133.565 40.979 133.165 42.0696 132.613 43.2016C132.06 44.3059 131.315 45.3551 130.376 46.349C129.465 47.3153 128.361 48.1712 127.063 48.9167C125.793 49.6345 124.316 50.1177 122.632 50.3661C120.81 50.587 119.029 50.5732 117.29 50.3247C116.848 50.2419 116.42 50.1039 116.006 49.9106C115.619 49.7173 115.274 49.4688 114.97 49.1651C114.308 48.5025 113.99 47.7709 114.018 46.9702C114.046 45.8935 114.087 44.8167 114.142 43.74C114.197 42.6632 114.197 41.5864 114.142 40.5097C114.087 37.4175 114.032 34.5323 113.977 31.8542C113.921 29.1485 113.894 26.4704 113.894 23.82C113.921 23.185 113.935 22.5499 113.935 21.9149C113.935 21.2523 113.935 20.5897 113.935 19.9271C113.963 19.1816 114.087 18.6847 114.308 18.4362C114.556 18.1601 115.039 17.953 115.757 17.815C118.215 17.3732 120.686 17.4561 123.17 18.0635C125.793 18.6709 127.919 19.72 129.548 21.2109C131.205 22.7018 132.433 24.455 133.234 26.4704C134.035 28.4859 134.462 30.667 134.518 33.0138C134.573 35.3606 134.338 37.6659 133.814 39.9299ZM121.555 41.8349C122.08 41.8901 122.535 41.8487 122.922 41.7107C123.336 41.5726 123.736 41.3656 124.123 41.0895C124.703 40.6477 125.158 40.1232 125.49 39.5158C125.821 38.8807 126.069 38.2181 126.235 37.5279C126.428 36.8101 126.552 36.0922 126.608 35.3744C126.663 34.6289 126.704 33.9387 126.732 33.3037C126.732 32.2822 126.649 31.2744 126.483 30.2805C126.345 29.259 126.069 28.3617 125.655 27.5886C125.269 26.8156 124.716 26.222 123.999 25.8078C123.308 25.3937 122.425 25.2833 121.348 25.4765C121.624 28.2098 121.762 30.9293 121.762 33.635C121.762 36.3407 121.693 39.074 121.555 41.8349ZM155.052 43.0773C156.653 43.0221 157.468 43.7261 157.495 45.1894C157.523 45.9073 157.509 46.5285 157.454 47.053C157.426 47.5776 157.385 48.185 157.33 48.8752C157.219 49.8416 156.639 50.3523 155.59 50.4076C153.078 50.4628 150.69 50.5318 148.426 50.6146C146.189 50.7251 144.036 50.6284 141.965 50.3247C141.358 50.2419 140.861 49.9934 140.474 49.5793C140.115 49.1651 139.922 48.6406 139.894 48.0056C139.756 43.4777 139.674 39.1016 139.646 34.8774C139.618 30.6532 139.591 26.6913 139.563 22.9917C139.563 22.4119 139.577 21.8321 139.604 21.2523C139.632 20.6449 139.715 20.0927 139.853 19.5958C140.019 19.0988 140.267 18.6985 140.598 18.3948C140.957 18.0635 141.468 17.884 142.131 17.8564C142.849 17.8288 143.566 17.8288 144.284 17.8564C145.002 17.8564 145.72 17.8426 146.438 17.815C146.907 17.815 147.349 17.8012 147.763 17.7736C148.205 17.746 148.646 17.7183 149.088 17.6907C149.972 17.6355 150.828 17.5803 151.656 17.5251C152.512 17.4699 153.354 17.4285 154.182 17.4008C154.707 17.4008 155.245 17.5389 155.797 17.815C156.377 18.0635 156.75 18.4362 156.915 18.9332C157.385 20.3688 157.481 21.7631 157.205 23.1159C157.122 23.7233 156.874 24.2617 156.46 24.7311C156.073 25.2004 155.48 25.4075 154.679 25.3523C153.961 25.2971 153.257 25.2556 152.567 25.228C151.877 25.2004 151.173 25.1728 150.455 25.1452C149.461 25.1452 148.729 25.2004 148.26 25.3109C147.791 25.3937 147.445 25.5455 147.225 25.7664C147.031 25.9873 146.893 26.3048 146.81 26.7189C146.755 27.1055 146.728 27.6162 146.728 28.2512C146.755 28.8586 146.755 29.6179 146.728 30.529C146.728 30.9983 146.921 31.302 147.307 31.4401C147.722 31.5505 148.122 31.6057 148.508 31.6057C149.226 31.6057 149.903 31.6057 150.538 31.6057C151.173 31.6057 151.808 31.6472 152.443 31.73C152.829 31.7852 153.147 31.9232 153.395 32.1441C153.671 32.365 153.823 32.6963 153.851 33.138C153.878 33.6902 153.906 34.2424 153.934 34.7946C153.989 35.3468 154.003 35.899 153.975 36.4511C153.92 37.6936 153.23 38.3148 151.904 38.3148C151.573 38.3148 151.242 38.301 150.91 38.2733C150.579 38.2457 150.262 38.2181 149.958 38.1905C149.599 38.1629 149.24 38.1491 148.881 38.1491C148.55 38.1215 148.205 38.1215 147.846 38.1491C147.487 38.1767 147.238 38.2595 147.1 38.3976C146.962 38.508 146.893 38.7427 146.893 39.1016C146.893 39.571 146.879 40.0403 146.852 40.5097C146.852 40.9514 146.866 41.4208 146.893 41.9177C146.921 42.4699 147.018 42.8289 147.183 42.9945C147.376 43.1602 147.749 43.243 148.301 43.243C149.351 43.243 150.234 43.243 150.952 43.243C151.67 43.2154 152.277 43.2016 152.774 43.2016C153.271 43.174 153.685 43.1464 154.016 43.1187C154.375 43.0911 154.72 43.0773 155.052 43.0773ZM182.941 28.127C182.554 28.6516 182.099 29.0933 181.574 29.4522C181.049 29.8111 180.525 30.032 180 30.1148C179.476 30.1977 178.979 30.1287 178.509 29.9078C178.04 29.6593 177.654 29.2037 177.35 28.5411C177.157 28.0994 176.949 27.6714 176.729 27.2573C176.508 26.8432 176.273 26.4428 176.025 26.0563C175.748 25.6422 175.39 25.2833 174.948 24.9796C174.202 24.3721 173.443 24.3307 172.67 24.8553C172.284 25.0762 171.994 25.3661 171.8 25.725C171.635 26.0839 171.552 26.4566 171.552 26.8432C171.552 27.2297 171.621 27.6162 171.759 28.0028C171.897 28.3617 172.118 28.6654 172.422 28.9138C172.974 29.3556 173.526 29.7835 174.078 30.1977C174.658 30.6118 175.238 31.0121 175.818 31.3987C176.508 31.8956 177.226 32.365 177.971 32.8067C178.716 33.2485 179.407 33.7178 180.042 34.2148C181.284 35.1811 182.181 36.2993 182.734 37.5693C183.313 38.8117 183.576 40.206 183.52 41.7521C183.465 42.8841 183.244 43.9332 182.858 44.8995C182.499 45.8659 181.933 46.7493 181.16 47.55C179.835 48.9029 178.371 49.7864 176.77 50.2005C175.196 50.6422 173.498 50.6698 171.676 50.2833C170.24 49.9796 168.929 49.4688 167.742 48.751C166.582 48.0056 165.506 47.1083 164.512 46.0591C163.932 45.4241 163.462 44.7477 163.104 44.0298C162.745 43.2844 162.469 42.4837 162.275 41.6279C162.11 40.7996 162.248 39.9713 162.689 39.143C163.048 38.4804 163.476 37.9144 163.973 37.4451C164.498 36.9757 165.147 36.6582 165.92 36.4926C166.555 36.3545 167.162 36.4097 167.742 36.6582C168.322 36.8791 168.763 37.2656 169.067 37.8178C169.288 38.1767 169.481 38.5356 169.647 38.8945C169.813 39.2535 169.978 39.6262 170.144 40.0127C170.448 40.6753 170.889 41.2275 171.469 41.6693C172.076 42.0834 172.67 42.3595 173.25 42.4975C173.857 42.608 174.396 42.5528 174.865 42.3319C175.362 42.0834 175.652 41.614 175.735 40.9238C175.79 40.4269 175.679 39.9023 175.403 39.3501C175.155 38.7703 174.768 38.2871 174.244 37.9006C173.609 37.4589 172.974 37.0171 172.339 36.5754C171.704 36.1336 171.055 35.7195 170.392 35.333C168.294 34.1182 166.458 32.5583 164.884 30.6532C164.084 29.4936 163.614 28.2788 163.476 27.0088C163.366 25.7112 163.518 24.4688 163.932 23.2816C164.346 22.0944 165.022 21.0452 165.961 20.1341C166.9 19.223 168.046 18.5604 169.398 18.1463C170.917 17.7045 172.38 17.4699 173.788 17.4423C175.224 17.4146 176.522 17.6355 177.681 18.1049C178.537 18.4638 179.434 18.9884 180.373 19.6786C181.339 20.3688 182.14 21.1695 182.775 22.0806C183.41 22.9641 183.797 23.9304 183.935 24.9796C184.073 26.0287 183.741 27.0778 182.941 28.127ZM226.412 33.4694C227.571 34.5185 228.441 35.7195 229.021 37.0723C229.601 38.4252 229.918 39.8609 229.973 41.3794C229.973 42.6494 229.656 43.8228 229.021 44.8995C228.413 45.9487 227.627 46.8598 226.66 47.6328C225.694 48.4059 224.617 49.0271 223.43 49.4965C222.27 49.9658 221.152 50.2419 220.075 50.3247C218.916 50.3799 217.756 50.4352 216.597 50.4904C215.437 50.5732 214.264 50.6422 213.077 50.6975C212.773 50.7251 212.455 50.7113 212.124 50.656C211.82 50.6008 211.517 50.5456 211.213 50.4904C209.722 50.0762 208.949 49.0961 208.894 47.55C208.894 46.9426 208.908 46.3628 208.935 45.8106C208.963 45.2585 208.977 44.6925 208.977 44.1127C209.004 43.312 209.018 42.5113 209.018 41.7107C209.018 40.8824 209.018 40.0679 209.018 39.2673C208.99 37.6107 208.963 35.9818 208.935 34.3805C208.908 32.7515 208.866 31.1088 208.811 29.4522C208.756 28.1546 208.673 26.8846 208.562 25.6422C208.452 24.3721 208.342 23.0883 208.231 21.7907C208.231 21.1005 208.273 20.5207 208.355 20.0513C208.466 19.5544 208.645 19.154 208.894 18.8503C209.142 18.5466 209.474 18.3119 209.888 18.1463C210.302 17.953 210.84 17.8288 211.503 17.7736C212.607 17.7736 213.739 17.7874 214.899 17.815C216.086 17.815 217.246 17.884 218.378 18.022C219.509 18.1601 220.586 18.3672 221.608 18.6433C222.657 18.9193 223.623 19.3059 224.507 19.8028C225.39 20.2722 226.149 20.852 226.784 21.5422C227.419 22.2048 227.903 22.9503 228.234 23.7786C228.593 24.6068 228.786 25.4903 228.814 26.429C228.869 27.3677 228.745 28.3064 228.441 29.2452C228.165 30.0458 227.875 30.7775 227.571 31.4401C227.433 31.799 227.254 32.1441 227.033 32.4754C226.84 32.7791 226.633 33.1104 226.412 33.4694ZM216.265 42.3319C216.928 42.4423 217.549 42.4147 218.129 42.2491C218.709 42.0834 219.289 41.8487 219.868 41.545C220.172 41.3518 220.421 41.1171 220.614 40.841C220.835 40.5649 220.918 40.1922 220.862 39.7228C220.78 38.8117 220.338 38.2319 219.537 37.9834C218.985 37.7902 218.419 37.6659 217.839 37.6107C217.287 37.5555 216.735 37.6521 216.183 37.9006V41.6279C216.183 41.7659 216.196 41.8901 216.224 42.0006C216.252 42.111 216.265 42.2214 216.265 42.3319ZM215.934 29.6593C216.376 29.7145 216.845 29.7145 217.342 29.6593C217.839 29.6041 218.295 29.4798 218.709 29.2866C219.123 29.0933 219.454 28.831 219.703 28.4997C219.979 28.1684 220.103 27.7405 220.075 27.2159C219.993 26.6361 219.813 26.1667 219.537 25.8078C219.261 25.4489 218.888 25.2418 218.419 25.1866C218.06 25.1314 217.701 25.1176 217.342 25.1452C217.011 25.1452 216.666 25.159 216.307 25.1866C215.893 25.2418 215.699 25.4765 215.727 25.8907C215.782 26.4981 215.81 27.1193 215.81 27.7543C215.837 28.3617 215.879 28.9967 215.934 29.6593ZM250.818 45.0238C249.521 45.1066 248.251 45.1756 247.008 45.2308C245.766 45.2861 244.51 45.3413 243.24 45.3965C243.184 45.8659 243.129 46.3214 243.074 46.7632C243.019 47.1773 242.977 47.619 242.95 48.0884C242.895 48.8338 242.646 49.386 242.204 49.7449C241.79 50.1315 241.266 50.3799 240.631 50.4904C239.361 50.6284 238.104 50.6284 236.862 50.4904C236.255 50.4352 235.799 50.2005 235.495 49.7864C235.192 49.3722 235.04 48.8614 235.04 48.254C235.012 46.2662 235.026 44.0713 235.081 41.6693C235.164 39.2397 235.371 36.8239 235.702 34.4219C236.034 31.9923 236.544 29.6869 237.235 27.5058C237.925 25.3247 238.891 23.4749 240.134 21.9564C241.072 20.7968 242.149 19.8304 243.364 19.0574C244.579 18.2843 245.89 17.8564 247.298 17.7736C248.541 17.6907 249.673 17.8702 250.694 18.3119C251.716 18.7261 252.627 19.3335 253.427 20.1341C254.228 20.9072 254.918 21.8183 255.498 22.8675C256.105 23.9166 256.616 25.0072 257.03 26.1391C257.472 27.2435 257.817 28.3479 258.066 29.4522C258.342 30.5566 258.535 31.5643 258.646 32.4754C258.949 34.9879 259.101 37.4727 259.101 39.9299C259.101 42.3871 259.046 44.8719 258.935 47.3844C258.88 48.0194 258.756 48.6406 258.563 49.248C258.369 49.8278 257.928 50.1729 257.237 50.2833C256.575 50.3385 255.898 50.3799 255.208 50.4076C254.546 50.4352 253.855 50.449 253.138 50.449C252.42 50.4214 251.923 50.2419 251.647 49.9106C251.371 49.6069 251.205 49.0409 251.15 48.2126C251.094 47.6328 251.039 47.0945 250.984 46.5975C250.929 46.0729 250.874 45.5483 250.818 45.0238ZM250.321 37.9006C250.321 37.238 250.294 36.4788 250.239 35.6229C250.211 34.767 250.142 33.8973 250.031 33.0138C249.755 30.9155 249.3 29.3832 248.665 28.4169C248.057 27.4506 247.464 27.0364 246.884 27.1745C246.525 27.2573 246.18 27.5196 245.849 27.9613C245.517 28.4031 245.2 28.9553 244.896 29.6179C244.62 30.2529 244.372 30.9707 244.151 31.7714C243.93 32.5445 243.737 33.3313 243.571 34.132C243.433 34.905 243.322 35.6643 243.24 36.4097C243.157 37.1276 243.129 37.7488 243.157 38.2733C244.427 38.2181 245.642 38.1629 246.801 38.1077C247.961 38.0249 249.134 37.9558 250.321 37.9006ZM274.034 41.8763C274.31 41.8763 274.559 41.8901 274.779 41.9177C275.028 41.9177 275.263 41.9039 275.483 41.8763C276.726 41.8487 277.941 41.8211 279.128 41.7935C280.315 41.7383 281.53 41.6969 282.772 41.6693C283.076 41.6693 283.393 41.6969 283.725 41.7521C284.056 41.8073 284.387 41.8625 284.719 41.9177C285.216 42.0558 285.63 42.3181 285.961 42.7046C286.292 43.0635 286.486 43.5191 286.541 44.0713C286.624 44.9548 286.596 45.8244 286.458 46.6803C286.348 47.5362 286.058 48.3645 285.588 49.1651C285.367 49.5793 285.105 49.883 284.802 50.0762C284.498 50.2971 284.111 50.3799 283.642 50.3247C282.703 50.2143 281.778 50.1591 280.867 50.1591C279.956 50.1591 279.045 50.1867 278.134 50.2419C277.223 50.2971 276.298 50.3523 275.359 50.4076C274.448 50.4628 273.537 50.4766 272.626 50.449C271.853 50.449 271.08 50.449 270.307 50.449C269.561 50.449 268.802 50.4352 268.029 50.4076C267.78 50.4076 267.532 50.3938 267.284 50.3661C267.035 50.3385 266.8 50.2971 266.579 50.2419C265.53 50.0762 264.895 49.4688 264.674 48.4197C264.454 47.2601 264.357 46.0867 264.385 44.8995C264.412 43.7123 264.536 42.539 264.757 41.3794C264.812 41.1585 264.923 40.91 265.089 40.6339C265.254 40.3578 265.406 40.1094 265.544 39.8885C266.428 38.4528 267.366 37.0862 268.36 35.7885C269.354 34.4909 270.376 33.2071 271.425 31.937C272.06 31.1916 272.695 30.4462 273.33 29.7007C273.965 28.9553 274.572 28.196 275.152 27.423C275.456 27.0364 275.718 26.6499 275.939 26.2634C276.187 25.8768 276.464 25.4627 276.767 25.021C276.353 24.8277 275.787 24.7587 275.069 24.8139C274.379 24.8691 273.62 24.9519 272.792 25.0624C271.963 25.1452 271.121 25.228 270.265 25.3109C269.409 25.3661 268.623 25.3385 267.905 25.228C267.214 25.1176 266.635 24.8829 266.165 24.524C265.696 24.1375 265.434 23.5301 265.378 22.7018C265.323 22.1496 265.296 21.6112 265.296 21.0867C265.296 20.5345 265.309 19.9961 265.337 19.4715C265.365 18.7813 265.503 18.2981 265.751 18.022C266 17.746 266.455 17.5941 267.118 17.5665C267.891 17.5113 268.664 17.4975 269.437 17.5251C270.21 17.5527 270.997 17.5665 271.798 17.5665C273.73 17.6769 275.635 17.7322 277.513 17.7322C279.39 17.7045 281.281 17.7045 283.186 17.7322C283.518 17.7322 283.835 17.7736 284.139 17.8564C284.47 17.9116 284.788 17.9806 285.091 18.0635C285.478 18.1463 285.795 18.3257 286.044 18.6018C286.32 18.8503 286.486 19.1816 286.541 19.5958C286.596 20.0651 286.651 20.5483 286.707 21.0452C286.762 21.5146 286.789 21.984 286.789 22.4533C286.789 22.8951 286.734 23.3368 286.624 23.7786C286.513 24.2203 286.334 24.6482 286.085 25.0624C285.533 25.8078 284.967 26.5395 284.387 27.2573C283.835 27.9475 283.255 28.6101 282.648 29.2452C279.666 32.503 277.071 36.0784 274.862 39.9713C274.724 40.2198 274.6 40.4683 274.489 40.7168C274.379 40.9652 274.269 41.1999 274.158 41.4208C274.131 41.476 274.117 41.5312 274.117 41.5864C274.117 41.6417 274.089 41.7383 274.034 41.8763ZM307.655 45.0238C306.358 45.1066 305.088 45.1756 303.845 45.2308C302.603 45.2861 301.347 45.3413 300.077 45.3965C300.021 45.8659 299.966 46.3214 299.911 46.7632C299.856 47.1773 299.814 47.619 299.787 48.0884C299.732 48.8338 299.483 49.386 299.041 49.7449C298.627 50.1315 298.103 50.3799 297.468 50.4904C296.198 50.6284 294.941 50.6284 293.699 50.4904C293.092 50.4352 292.636 50.2005 292.332 49.7864C292.029 49.3722 291.877 48.8614 291.877 48.254C291.849 46.2662 291.863 44.0713 291.918 41.6693C292.001 39.2397 292.208 36.8239 292.539 34.4219C292.871 31.9923 293.382 29.6869 294.072 27.5058C294.762 25.3247 295.728 23.4749 296.971 21.9564C297.909 20.7968 298.986 19.8304 300.201 19.0574C301.416 18.2843 302.727 17.8564 304.135 17.7736C305.378 17.6907 306.51 17.8702 307.531 18.3119C308.553 18.7261 309.464 19.3335 310.264 20.1341C311.065 20.9072 311.755 21.8183 312.335 22.8675C312.943 23.9166 313.453 25.0072 313.867 26.1391C314.309 27.2435 314.654 28.3479 314.903 29.4522C315.179 30.5566 315.372 31.5643 315.483 32.4754C315.786 34.9879 315.938 37.4727 315.938 39.9299C315.938 42.3871 315.883 44.8719 315.773 47.3844C315.717 48.0194 315.593 48.6406 315.4 49.248C315.207 49.8278 314.765 50.1729 314.075 50.2833C313.412 50.3385 312.736 50.3799 312.045 50.4076C311.383 50.4352 310.692 50.449 309.975 50.449C309.257 50.4214 308.76 50.2419 308.484 49.9106C308.208 49.6069 308.042 49.0409 307.987 48.2126C307.932 47.6328 307.876 47.0945 307.821 46.5975C307.766 46.0729 307.711 45.5483 307.655 45.0238ZM307.158 37.9006C307.158 37.238 307.131 36.4788 307.076 35.6229C307.048 34.767 306.979 33.8973 306.869 33.0138C306.592 30.9155 306.137 29.3832 305.502 28.4169C304.895 27.4506 304.301 27.0364 303.721 27.1745C303.362 27.2573 303.017 27.5196 302.686 27.9613C302.354 28.4031 302.037 28.9553 301.733 29.6179C301.457 30.2529 301.209 30.9707 300.988 31.7714C300.767 32.5445 300.574 33.3313 300.408 34.132C300.27 34.905 300.16 35.6643 300.077 36.4097C299.994 37.1276 299.966 37.7488 299.994 38.2733C301.264 38.2181 302.479 38.1629 303.638 38.1077C304.798 38.0249 305.971 37.9558 307.158 37.9006ZM337.166 45.0238C335.868 45.1066 334.598 45.1756 333.356 45.2308C332.113 45.2861 330.857 45.3413 329.587 45.3965C329.532 45.8659 329.477 46.3214 329.422 46.7632C329.366 47.1773 329.325 47.619 329.297 48.0884C329.242 48.8338 328.994 49.386 328.552 49.7449C328.138 50.1315 327.613 50.3799 326.978 50.4904C325.708 50.6284 324.452 50.6284 323.209 50.4904C322.602 50.4352 322.147 50.2005 321.843 49.7864C321.539 49.3722 321.387 48.8614 321.387 48.254C321.36 46.2662 321.373 44.0713 321.429 41.6693C321.512 39.2397 321.719 36.8239 322.05 34.4219C322.381 31.9923 322.892 29.6869 323.582 27.5058C324.272 25.3247 325.239 23.4749 326.481 21.9564C327.42 20.7968 328.497 19.8304 329.711 19.0574C330.926 18.2843 332.238 17.8564 333.646 17.7736C334.888 17.6907 336.02 17.8702 337.042 18.3119C338.063 18.7261 338.974 19.3335 339.775 20.1341C340.576 20.9072 341.266 21.8183 341.846 22.8675C342.453 23.9166 342.964 25.0072 343.378 26.1391C343.82 27.2435 344.165 28.3479 344.413 29.4522C344.689 30.5566 344.883 31.5643 344.993 32.4754C345.297 34.9879 345.449 37.4727 345.449 39.9299C345.449 42.3871 345.393 44.8719 345.283 47.3844C345.228 48.0194 345.104 48.6406 344.91 49.248C344.717 49.8278 344.275 50.1729 343.585 50.2833C342.922 50.3385 342.246 50.3799 341.556 50.4076C340.893 50.4352 340.203 50.449 339.485 50.449C338.767 50.4214 338.27 50.2419 337.994 49.9106C337.718 49.6069 337.552 49.0409 337.497 48.2126C337.442 47.6328 337.387 47.0945 337.332 46.5975C337.276 46.0729 337.221 45.5483 337.166 45.0238ZM336.669 37.9006C336.669 37.238 336.641 36.4788 336.586 35.6229C336.558 34.767 336.489 33.8973 336.379 33.0138C336.103 30.9155 335.647 29.3832 335.012 28.4169C334.405 27.4506 333.811 27.0364 333.232 27.1745C332.873 27.2573 332.528 27.5196 332.196 27.9613C331.865 28.4031 331.547 28.9553 331.244 29.6179C330.968 30.2529 330.719 30.9707 330.498 31.7714C330.277 32.5445 330.084 33.3313 329.918 34.132C329.78 34.905 329.67 35.6643 329.587 36.4097C329.504 37.1276 329.477 37.7488 329.504 38.2733C330.774 38.2181 331.989 38.1629 333.149 38.1077C334.308 38.0249 335.482 37.9558 336.669 37.9006ZM363.736 39.5986C363.957 39.7918 364.15 39.9851 364.316 40.1784C364.481 40.3716 364.675 40.5373 364.896 40.6753C365.448 41.0619 366 41.4208 366.552 41.7521C367.132 42.0834 367.726 42.4147 368.333 42.746C368.664 42.9393 368.996 43.1049 369.327 43.243C369.658 43.3534 369.989 43.4777 370.321 43.6157C370.956 43.9194 371.37 44.2369 371.563 44.5682C371.756 44.8719 371.825 45.3827 371.77 46.1005C371.715 47.2049 371.37 48.1988 370.735 49.0823C370.017 50.0762 369.051 50.4904 367.836 50.3247C366.952 50.2419 366.097 50.021 365.268 49.6621C364.44 49.3308 363.695 48.8614 363.032 48.254C362.397 47.6743 361.79 47.0807 361.21 46.4733C360.63 45.8382 360.05 45.217 359.47 44.6096C359.277 44.3888 359.098 44.1817 358.932 43.9884C358.766 43.7676 358.546 43.5743 358.269 43.4086C358.297 43.9056 358.325 44.4164 358.352 44.9409C358.407 45.4379 358.435 45.9487 358.435 46.4733C358.463 46.8598 358.476 47.2601 358.476 47.6743C358.476 48.0884 358.449 48.4887 358.394 48.8752C358.338 49.3998 358.187 49.7864 357.938 50.0348C357.717 50.2833 357.358 50.449 356.861 50.5318C356.254 50.587 355.66 50.6284 355.081 50.656C354.501 50.7113 353.907 50.7113 353.3 50.656C352.14 50.5732 351.491 49.8968 351.353 48.6268C351.298 48.1022 351.243 47.5914 351.188 47.0945C351.16 46.5699 351.146 46.0453 351.146 45.5207C351.036 41.1309 350.953 36.8653 350.898 32.7239C350.87 28.5825 350.925 24.4274 351.063 20.2584C351.063 20.0927 351.077 19.9409 351.105 19.8028C351.132 19.6372 351.174 19.4715 351.229 19.3059C351.422 18.6709 351.836 18.3119 352.471 18.2291C354.349 17.953 356.282 17.9392 358.269 18.1877C358.711 18.2429 359.139 18.2981 359.553 18.3534C359.995 18.381 360.451 18.4362 360.92 18.519C364.426 19.2369 367.035 20.7415 368.747 23.0331C370.459 25.2971 371.108 28.127 370.694 31.5229C370.417 33.566 369.7 35.333 368.54 36.8239C367.38 38.3148 365.779 39.2397 363.736 39.5986ZM358.311 34.2148C358.449 34.2424 358.559 34.27 358.642 34.2976C358.753 34.3252 358.849 34.339 358.932 34.339C359.788 34.2838 360.547 34.0491 361.21 33.635C361.872 33.2209 362.397 32.7101 362.784 32.1027C363.17 31.4953 363.391 30.8327 363.446 30.1148C363.529 29.3694 363.391 28.6378 363.032 27.9199C362.866 27.5334 362.604 27.1883 362.245 26.8846C361.886 26.5533 361.486 26.291 361.044 26.0977C360.602 25.9045 360.133 25.7802 359.636 25.725C359.167 25.6422 358.725 25.656 358.311 25.7664V34.2148Z" fill="#DFC5FF"/>
<path d="M54.3435 7.20681C54.3378 6.88371 54.5951 6.61669 54.9182 6.61096C58.9569 6.53931 62.2891 9.76083 62.3607 13.7996C62.3664 14.1227 62.1091 14.3897 61.786 14.3955C57.7472 14.4671 54.415 11.2456 54.3435 7.20681Z" fill="#FFC600"/>
<path d="M80.5564 6.74172C80.5507 6.41862 80.2841 6.1609 79.961 6.16663C75.9222 6.23828 72.7062 9.57596 72.7778 13.6147C72.7835 13.9379 73.0501 14.1956 73.3732 14.1898C77.4119 14.1182 80.6279 10.7805 80.5564 6.74172Z" fill="#FF4C00"/>
<path d="M66.7858 11.9544C67.0183 12.179 67.3887 12.1724 67.6131 11.9398C70.4184 9.03108 70.3363 4.39734 67.4298 1.59C67.1973 1.36541 66.8269 1.37198 66.6024 1.60467C63.7972 4.51334 63.8793 9.14709 66.7858 11.9544Z" fill="#3E9FFF"/>
</svg>
