<svg width="156" height="54" viewBox="0 0 156 54" fill="none" xmlns="http://www.w3.org/2000/svg">
<path d="M9.07562 45.8755C9.048 46.2621 9.0342 46.6625 9.0342 47.0767C9.0342 47.4909 9.02039 47.8913 8.99277 48.2779C8.96516 48.6922 8.82709 49.0788 8.57856 49.4377C8.35765 49.7967 7.97105 49.99 7.41877 50.0176C6.70081 50.0452 5.98284 50.0591 5.26488 50.0591C4.54691 50.0591 3.82895 50.0314 3.11098 49.9762C2.14449 49.8658 1.60602 49.2997 1.49556 48.2779C1.44033 48.057 1.41272 47.8361 1.41272 47.6152C1.41272 47.3943 1.41272 47.1596 1.41272 46.9111C1.49556 42.4928 1.5784 38.3369 1.66125 34.4433C1.74409 30.5497 1.78551 26.7114 1.78551 22.9283C1.78551 22.4312 1.75789 21.9341 1.70267 21.4371C1.64744 20.94 1.5784 20.443 1.49556 19.9459C1.38511 19.1727 1.44033 18.6205 1.66125 18.2891C1.88216 17.9301 2.37921 17.6816 3.1524 17.5435C4.31219 17.3778 5.54102 17.295 6.83888 17.295C8.13674 17.2674 9.4346 17.3502 10.7325 17.5435C12.0303 17.7368 13.2868 18.0544 14.5018 18.4962C15.7168 18.938 16.8214 19.5179 17.8155 20.2359C19.0029 21.0919 19.9555 22.1551 20.6735 23.4253C21.4191 24.6679 21.93 25.9934 22.2061 27.4017C22.5098 28.81 22.5927 30.2598 22.4546 31.7509C22.3165 33.2145 21.9714 34.609 21.4191 35.9345C20.8944 37.2323 20.1488 38.4059 19.1824 39.4553C18.2435 40.5046 17.1113 41.3192 15.7858 41.8991C15.2059 42.1752 14.5984 42.3685 13.9633 42.479C13.3282 42.5895 12.6792 42.6447 12.0165 42.6447H9.07562V45.8755ZM9.57267 26.4076C9.51744 27.7055 9.47602 28.9757 9.44841 30.2184C9.42079 31.461 9.44841 32.7036 9.53125 33.9463C10.0283 33.9463 10.4977 33.9601 10.9396 33.9877C11.3814 33.9877 11.837 33.9739 12.3065 33.9463C12.9968 33.891 13.5767 33.6701 14.0461 33.2835C14.5432 32.8969 14.847 32.3723 14.9574 31.7095C15.0955 31.1572 15.1507 30.605 15.1231 30.0527C15.0955 29.4728 14.9298 28.9205 14.626 28.3958C13.9909 27.236 13.0658 26.5733 11.8508 26.4076C11.4918 26.3524 11.1329 26.3386 10.7739 26.3662C10.4149 26.3938 10.0145 26.4076 9.57267 26.4076ZM40.4116 39.1239C40.6325 39.3172 40.8258 39.5105 40.9915 39.7038C41.1572 39.8971 41.3505 40.0628 41.5714 40.2008C42.1237 40.5874 42.676 40.9464 43.2283 41.2778C43.8081 41.6092 44.4018 41.9405 45.0094 42.2719C45.3407 42.4652 45.6721 42.6309 46.0035 42.7689C46.3348 42.8794 46.6662 43.0037 46.9976 43.1417C47.6327 43.4455 48.0469 43.763 48.2402 44.0944C48.4335 44.3982 48.5025 44.909 48.4473 45.627C48.3921 46.7316 48.0469 47.7257 47.4118 48.6093C46.6938 49.6034 45.7273 50.0176 44.5123 49.8519C43.6287 49.7691 42.7726 49.5482 41.9442 49.1892C41.1158 48.8578 40.3702 48.3884 39.7075 47.7809C39.0723 47.201 38.4648 46.6073 37.8849 45.9998C37.305 45.3647 36.7251 44.7433 36.1453 44.1358C35.952 43.9149 35.7725 43.7078 35.6068 43.5145C35.4411 43.2936 35.2202 43.1003 34.944 42.9346C34.9717 43.4317 34.9993 43.9425 35.0269 44.4672C35.0821 44.9643 35.1097 45.4751 35.1097 45.9998C35.1373 46.3864 35.1511 46.7868 35.1511 47.201C35.1511 47.6152 35.1235 48.0156 35.0683 48.4022C35.0131 48.9269 34.8612 49.3135 34.6127 49.562C34.3918 49.8105 34.0328 49.9762 33.5357 50.0591C32.9282 50.1143 32.3345 50.1557 31.7546 50.1833C31.1747 50.2385 30.581 50.2385 29.9735 50.1833C28.8137 50.1005 28.1648 49.4239 28.0267 48.1537C27.9715 47.629 27.9163 47.1182 27.861 46.6211C27.8334 46.0964 27.8196 45.5718 27.8196 45.0471C27.7092 40.6565 27.6263 36.3901 27.5711 32.248C27.5435 28.1059 27.5987 23.95 27.7368 19.7803C27.7368 19.6146 27.7506 19.4627 27.7782 19.3246C27.8058 19.1589 27.8472 18.9933 27.9025 18.8276C28.0958 18.1924 28.51 17.8335 29.1451 17.7506C31.0228 17.4745 32.9558 17.4607 34.944 17.7092C35.3859 17.7644 35.8139 17.8197 36.2281 17.8749C36.6699 17.9025 37.1255 17.9577 37.595 18.0406C41.102 18.7585 43.7115 20.2635 45.4236 22.5555C47.1356 24.8198 47.7846 27.6503 47.3704 31.0468C47.0942 33.0902 46.3763 34.8575 45.2165 36.3487C44.0567 37.8398 42.4551 38.7649 40.4116 39.1239ZM34.9855 33.7392C35.1235 33.7668 35.234 33.7944 35.3168 33.822C35.4273 33.8496 35.5239 33.8634 35.6068 33.8634C36.4628 33.8082 37.2222 33.5735 37.8849 33.1593C38.5477 32.745 39.0723 32.2342 39.4589 31.6267C39.8455 31.0192 40.0664 30.3564 40.1217 29.6385C40.2045 28.8929 40.0664 28.1611 39.7075 27.4431C39.5418 27.0566 39.2794 26.7114 38.9205 26.4076C38.5615 26.0763 38.1611 25.8139 37.7193 25.6206C37.2774 25.4273 36.808 25.3031 36.3109 25.2478C35.8415 25.165 35.3997 25.1788 34.9855 25.2893V33.7392ZM78.2941 32.4965C78.2941 34.8437 78.0456 36.97 77.5485 38.8754C77.0791 40.7807 76.3197 42.5756 75.2704 44.2601C74.3315 45.8341 73.1579 47.132 71.7496 48.1537C70.6726 48.8993 69.5543 49.4377 68.3945 49.7691C67.2623 50.1005 66.1163 50.2247 64.9565 50.1419C63.8243 50.0591 62.706 49.7553 61.6014 49.2306C60.5245 48.7336 59.5027 48.0294 58.5362 47.1182C57.3488 45.9584 56.3824 44.6881 55.6368 43.3074C54.9188 41.8991 54.3803 40.3941 54.0214 38.7925C53.4691 36.3625 53.3034 33.9739 53.5243 31.6267C53.7452 29.2795 54.3803 26.9875 55.4297 24.7508C55.9819 23.7014 56.6033 22.7211 57.2936 21.8099C58.0116 20.8986 58.8262 20.084 59.7375 19.366C60.8144 18.5652 61.9328 17.9853 63.0926 17.6264C64.28 17.2398 65.4536 17.0879 66.6134 17.1707C67.7731 17.2536 68.9053 17.5573 70.0099 18.082C71.1421 18.6067 72.2052 19.3384 73.1993 20.2773C74.4143 21.4371 75.3808 22.7211 76.0988 24.1295C76.8167 25.5378 77.3552 27.0566 77.7142 28.6858C77.8799 29.4314 78.0041 30.1493 78.087 30.8397C78.1698 31.53 78.2389 32.0823 78.2941 32.4965ZM61.4357 34.1119C61.3805 34.9127 61.4357 35.7412 61.6014 36.5972C61.7671 37.4256 62.0432 38.2264 62.4298 38.9996C62.8993 39.9937 63.4515 40.8222 64.0867 41.4849C64.7494 42.1476 65.4674 42.4928 66.2406 42.5204C67.0414 42.5204 67.7593 42.2029 68.3945 41.5677C68.643 41.3468 68.8777 41.1121 69.0986 40.8636C69.3471 40.615 69.5404 40.3389 69.6785 40.0352C71.7496 36.0035 71.7634 31.9719 69.7199 27.9402C69.5543 27.5536 69.3195 27.2084 69.0158 26.9047C68.7396 26.5733 68.4359 26.2557 68.1045 25.952C67.5522 25.5102 66.9723 25.2893 66.3648 25.2893C65.7573 25.2616 65.1498 25.4411 64.5423 25.8277C64.1557 26.1315 63.8105 26.4767 63.5068 26.8633C63.203 27.2222 62.9407 27.6088 62.7198 28.023C61.7809 29.818 61.3529 31.8476 61.4357 34.1119ZM103.287 39.4553C103.039 40.5046 102.638 41.5953 102.086 42.7275C101.534 43.8321 100.788 44.8814 99.8492 45.8755C98.938 46.842 97.8334 47.6981 96.5355 48.4436C95.2653 49.1616 93.7879 49.6448 92.1035 49.8934C90.281 50.1143 88.4999 50.1005 86.7602 49.8519C86.3183 49.7691 85.8903 49.631 85.4761 49.4377C85.0895 49.2444 84.7443 48.9959 84.4406 48.6922C83.7779 48.0294 83.4603 47.2976 83.4879 46.4968C83.5155 45.4199 83.5569 44.3429 83.6122 43.266C83.6674 42.189 83.6674 41.1121 83.6122 40.0352C83.5569 36.9424 83.5017 34.0567 83.4465 31.3782C83.3913 28.672 83.3636 25.9934 83.3636 23.3425C83.3913 22.7073 83.4051 22.0722 83.4051 21.4371C83.4051 20.7744 83.4051 20.1116 83.4051 19.4489C83.4327 18.7033 83.5569 18.2063 83.7779 17.9577C84.0264 17.6816 84.5096 17.4745 85.2276 17.3364C87.6852 16.8946 90.1567 16.9774 92.642 17.5849C95.2653 18.1924 97.3916 19.2418 99.0208 20.7329C100.678 22.2241 101.906 23.9776 102.707 25.9934C103.508 28.0092 103.936 30.1907 103.991 32.5379C104.047 34.8851 103.812 37.1909 103.287 39.4553ZM91.0265 41.3606C91.5512 41.4159 92.0068 41.3744 92.3934 41.2364C92.8076 41.0983 93.2081 40.8912 93.5946 40.615C94.1745 40.1732 94.6302 39.6486 94.9615 39.041C95.2929 38.4059 95.5414 37.7432 95.7071 37.0528C95.9004 36.3349 96.0247 35.6169 96.0799 34.8989C96.1351 34.1534 96.1766 33.463 96.2042 32.8279C96.2042 31.8062 96.1213 30.7983 95.9556 29.8042C95.8176 28.7824 95.5414 27.885 95.1272 27.1118C94.7406 26.3386 94.1883 25.7449 93.4704 25.3307C92.78 24.9165 91.8964 24.806 90.8194 24.9993C91.0956 27.7331 91.2336 30.4531 91.2336 33.1593C91.2336 35.8654 91.1646 38.5992 91.0265 41.3606ZM124.529 42.6033C126.131 42.548 126.945 43.2522 126.973 44.7157C127.001 45.4337 126.987 46.055 126.931 46.5797C126.904 47.1043 126.862 47.7119 126.807 48.4022C126.697 49.3687 126.117 49.8796 125.068 49.9348C122.555 49.99 120.166 50.0591 117.902 50.1419C115.665 50.2523 113.511 50.1557 111.44 49.8519C110.833 49.7691 110.335 49.5206 109.949 49.1064C109.59 48.6922 109.397 48.1675 109.369 47.5324C109.231 43.0037 109.148 38.6268 109.12 34.4019C109.093 30.1769 109.065 26.2143 109.038 22.514C109.038 21.9341 109.051 21.3543 109.079 20.7744C109.107 20.1669 109.189 19.6146 109.328 19.1175C109.493 18.6205 109.742 18.2201 110.073 17.9163C110.432 17.5849 110.943 17.4054 111.606 17.3778C112.324 17.3502 113.042 17.3502 113.76 17.3778C114.478 17.3778 115.196 17.364 115.913 17.3364C116.383 17.3364 116.825 17.3226 117.239 17.295C117.681 17.2674 118.123 17.2398 118.564 17.2121C119.448 17.1569 120.304 17.1017 121.133 17.0465C121.989 16.9912 122.831 16.9498 123.659 16.9222C124.184 16.9222 124.722 17.0603 125.275 17.3364C125.855 17.5849 126.227 17.9577 126.393 18.4548C126.862 19.8907 126.959 21.2852 126.683 22.6383C126.6 23.2458 126.352 23.7843 125.937 24.2537C125.551 24.7232 124.957 24.9303 124.156 24.875C123.438 24.8198 122.734 24.7784 122.044 24.7508C121.353 24.7232 120.649 24.6956 119.931 24.6679C118.937 24.6679 118.205 24.7232 117.736 24.8336C117.267 24.9165 116.921 25.0683 116.7 25.2893C116.507 25.5102 116.369 25.8277 116.286 26.2419C116.231 26.6285 116.203 27.1394 116.203 27.7745C116.231 28.382 116.231 29.1414 116.203 30.0527C116.203 30.5221 116.397 30.8259 116.783 30.9639C117.198 31.0744 117.598 31.1296 117.985 31.1296C118.703 31.1296 119.379 31.1296 120.014 31.1296C120.649 31.1296 121.284 31.171 121.92 31.2539C122.306 31.3091 122.624 31.4472 122.872 31.6681C123.148 31.889 123.3 32.2204 123.328 32.6622C123.355 33.2145 123.383 33.7668 123.411 34.319C123.466 34.8713 123.48 35.4236 123.452 35.9759C123.397 37.2185 122.707 37.8398 121.381 37.8398C121.05 37.8398 120.718 37.826 120.387 37.7984C120.056 37.7708 119.738 37.7432 119.434 37.7156C119.075 37.688 118.716 37.6742 118.357 37.6742C118.026 37.6465 117.681 37.6465 117.322 37.6742C116.963 37.7018 116.714 37.7846 116.576 37.9227C116.438 38.0331 116.369 38.2679 116.369 38.6268C116.369 39.0963 116.355 39.5657 116.328 40.0352C116.328 40.477 116.342 40.9464 116.369 41.4435C116.397 41.9958 116.493 42.3547 116.659 42.5204C116.852 42.6861 117.225 42.7689 117.777 42.7689C118.827 42.7689 119.71 42.7689 120.428 42.7689C121.146 42.7413 121.754 42.7275 122.251 42.7275C122.748 42.6999 123.162 42.6723 123.494 42.6447C123.853 42.6171 124.198 42.6033 124.529 42.6033ZM152.423 27.6503C152.036 28.1749 151.581 28.6167 151.056 28.9757C150.531 29.3347 150.007 29.5556 149.482 29.6385C148.957 29.7213 148.46 29.6523 147.991 29.4314C147.521 29.1828 147.135 28.7272 146.831 28.0645C146.638 27.6226 146.431 27.1946 146.21 26.7804C145.989 26.3662 145.754 25.9658 145.506 25.5792C145.229 25.165 144.87 24.806 144.429 24.5023C143.683 23.8947 142.924 23.8533 142.15 24.378C141.764 24.5989 141.474 24.8889 141.281 25.2478C141.115 25.6068 141.032 25.9796 141.032 26.3662C141.032 26.7528 141.101 27.1394 141.239 27.526C141.377 27.885 141.598 28.1887 141.902 28.4373C142.454 28.8791 143.007 29.3071 143.559 29.7213C144.139 30.1355 144.719 30.5359 145.298 30.9225C145.989 31.4196 146.707 31.889 147.452 32.3308C148.198 32.7727 148.888 33.2421 149.523 33.7392C150.766 34.7056 151.664 35.824 152.216 37.0943C152.796 38.3369 153.058 39.7314 153.003 41.2778C152.948 42.41 152.727 43.4593 152.34 44.4258C151.981 45.3923 151.415 46.2759 150.642 47.0767C149.316 48.4298 147.853 49.3135 146.251 49.7277C144.677 50.1695 142.979 50.1971 141.156 49.8105C139.72 49.5068 138.409 48.9959 137.221 48.2779C136.062 47.5324 134.985 46.6349 133.991 45.5856C133.411 44.9505 132.941 44.2739 132.582 43.5559C132.223 42.8104 131.947 42.0096 131.754 41.1535C131.588 40.3251 131.726 39.4967 132.168 38.6683C132.527 38.0055 132.955 37.4394 133.452 36.97C133.977 36.5006 134.626 36.183 135.399 36.0173C136.034 35.8792 136.641 35.9345 137.221 36.183C137.801 36.4039 138.243 36.7905 138.547 37.3428C138.768 37.7018 138.961 38.0607 139.127 38.4197C139.292 38.7787 139.458 39.1515 139.624 39.5381C139.928 40.2008 140.369 40.7531 140.949 41.1949C141.557 41.6092 142.15 41.8853 142.73 42.0234C143.338 42.1338 143.876 42.0786 144.346 41.8577C144.843 41.6092 145.133 41.1397 145.216 40.4494C145.271 39.9523 145.16 39.4276 144.884 38.8754C144.636 38.2955 144.249 37.8122 143.724 37.4256C143.089 36.9838 142.454 36.542 141.819 36.1002C141.184 35.6583 140.535 35.2441 139.872 34.8575C137.774 33.6425 135.937 32.0823 134.363 30.1769C133.563 29.0171 133.093 27.8021 132.955 26.5319C132.845 25.234 132.996 23.9914 133.411 22.804C133.825 21.6166 134.501 20.5673 135.44 19.656C136.379 18.7447 137.525 18.082 138.878 17.6678C140.397 17.226 141.861 16.9912 143.269 16.9636C144.705 16.936 146.003 17.1569 147.162 17.6264C148.018 17.9853 148.916 18.51 149.855 19.2004C150.821 19.8907 151.622 20.6915 152.257 21.6028C152.892 22.4864 153.279 23.4529 153.417 24.5023C153.555 25.5516 153.224 26.6009 152.423 27.6503Z" fill="#DFC5FF"/>
<path d="M53.7635 6.73636C53.7578 6.4132 54.0151 6.14648 54.3383 6.14075C58.3778 6.06913 61.7105 9.28709 61.7821 13.3266C61.7879 13.6497 61.5305 13.9165 61.2074 13.9222C57.1679 13.9938 53.8351 10.7759 53.7635 6.73636Z" fill="#FFC600"/>
<path d="M79.9812 6.27128C79.9755 5.94812 79.7089 5.69068 79.3857 5.69641C75.3462 5.76803 72.1296 9.10211 72.2012 13.1416C72.2069 13.4648 72.4735 13.7222 72.7967 13.7165C76.8362 13.6449 80.0528 10.3108 79.9812 6.27128Z" fill="#FF4C00"/>
<path d="M66.208 11.482C66.4405 11.7065 66.811 11.6999 67.0354 11.4673C69.8409 8.56001 69.7588 3.92848 66.8521 1.12247C66.6195 0.89799 66.2491 0.904558 66.0246 1.13714C63.2191 4.04443 63.3012 8.67596 66.208 11.482Z" fill="#3E9FFF"/>
</svg>
