<svg width="153" height="35" viewBox="0 0 153 35" fill="none" xmlns="http://www.w3.org/2000/svg">
<path d="M8.07562 29.8755C8.048 30.2621 8.0342 30.6625 8.0342 31.0767C8.0342 31.4909 8.02039 31.8913 7.99277 32.2779C7.96516 32.6922 7.82709 33.0788 7.57856 33.4377C7.35765 33.7967 6.97105 33.99 6.41877 34.0176C5.70081 34.0452 4.98284 34.0591 4.26488 34.0591C3.54691 34.0591 2.82895 34.0314 2.11098 33.9762C1.14449 33.8658 0.606018 33.2997 0.495562 32.2779C0.440334 32.057 0.412719 31.8361 0.412719 31.6152C0.412719 31.3943 0.412719 31.1596 0.412719 30.9111C0.495562 26.4928 0.578404 22.3369 0.661246 18.4433C0.744088 14.5497 0.785509 10.7114 0.785509 6.92826C0.785509 6.4312 0.757895 5.93415 0.702667 5.4371C0.647439 4.94004 0.578404 4.44299 0.495562 3.94594C0.385105 3.17274 0.440334 2.62046 0.661246 2.28909C0.882158 1.93011 1.37921 1.68158 2.1524 1.54351C3.31219 1.37783 4.54102 1.29499 5.83888 1.29499C7.13674 1.26738 8.4346 1.35022 9.73246 1.54351C11.0303 1.73681 12.2868 2.05438 13.5018 2.4962C14.7168 2.93802 15.8214 3.51792 16.8155 4.23588C18.0029 5.09192 18.9555 6.15506 19.6735 7.42531C20.4191 8.66794 20.93 9.99341 21.2061 11.4017C21.5098 12.81 21.5927 14.2598 21.4546 15.7509C21.3165 17.2145 20.9714 18.609 20.4191 19.9345C19.8944 21.2323 19.1488 22.4059 18.1824 23.4553C17.2435 24.5046 16.1113 25.3192 14.7858 25.8991C14.2059 26.1752 13.5984 26.3685 12.9633 26.479C12.3282 26.5895 11.6792 26.6447 11.0165 26.6447H8.07562V29.8755ZM8.57267 10.4076C8.51744 11.7055 8.47602 12.9757 8.44841 14.2184C8.42079 15.461 8.44841 16.7036 8.53125 17.9463C9.0283 17.9463 9.49774 17.9601 9.93956 17.9877C10.3814 17.9877 10.837 17.9739 11.3065 17.9463C11.9968 17.891 12.5767 17.6701 13.0461 17.2835C13.5432 16.8969 13.847 16.3723 13.9574 15.7095C14.0955 15.1572 14.1507 14.605 14.1231 14.0527C14.0955 13.4728 13.9298 12.9205 13.626 12.3958C12.9909 11.236 12.0658 10.5733 10.8508 10.4076C10.4918 10.3524 10.1329 10.3386 9.77388 10.3662C9.4149 10.3938 9.01449 10.4076 8.57267 10.4076ZM39.4116 23.1239C39.6325 23.3172 39.8258 23.5105 39.9915 23.7038C40.1572 23.8971 40.3505 24.0628 40.5714 24.2008C41.1237 24.5874 41.676 24.9464 42.2283 25.2778C42.8081 25.6092 43.4018 25.9405 44.0094 26.2719C44.3407 26.4652 44.6721 26.6309 45.0035 26.7689C45.3348 26.8794 45.6662 27.0037 45.9976 27.1417C46.6327 27.4455 47.0469 27.763 47.2402 28.0944C47.4335 28.3982 47.5025 28.909 47.4473 29.627C47.3921 30.7316 47.0469 31.7257 46.4118 32.6093C45.6938 33.6034 44.7273 34.0176 43.5123 33.8519C42.6287 33.7691 41.7726 33.5482 40.9442 33.1892C40.1158 32.8578 39.3702 32.3884 38.7075 31.7809C38.0723 31.201 37.4648 30.6073 36.8849 29.9998C36.305 29.3647 35.7251 28.7433 35.1453 28.1358C34.952 27.9149 34.7725 27.7078 34.6068 27.5145C34.4411 27.2936 34.2202 27.1003 33.944 26.9346C33.9717 27.4317 33.9993 27.9425 34.0269 28.4672C34.0821 28.9643 34.1097 29.4751 34.1097 29.9998C34.1373 30.3864 34.1511 30.7868 34.1511 31.201C34.1511 31.6152 34.1235 32.0156 34.0683 32.4022C34.0131 32.9269 33.8612 33.3135 33.6127 33.562C33.3918 33.8105 33.0328 33.9762 32.5357 34.0591C31.9282 34.1143 31.3345 34.1557 30.7546 34.1833C30.1747 34.2385 29.581 34.2385 28.9735 34.1833C27.8137 34.1005 27.1648 33.4239 27.0267 32.1537C26.9715 31.629 26.9163 31.1182 26.861 30.6211C26.8334 30.0964 26.8196 29.5718 26.8196 29.0471C26.7092 24.6565 26.6263 20.3901 26.5711 16.248C26.5435 12.1059 26.5987 7.94997 26.7368 3.78025C26.7368 3.61457 26.7506 3.46269 26.7782 3.32462C26.8058 3.15894 26.8472 2.99325 26.9025 2.82757C27.0958 2.19245 27.51 1.83346 28.1451 1.75062C30.0228 1.47448 31.9558 1.46067 33.944 1.7092C34.3859 1.76443 34.8139 1.81966 35.2281 1.87488C35.6699 1.9025 36.1255 1.95773 36.595 2.04057C40.102 2.75853 42.7115 4.2635 44.4236 6.55547C46.1356 8.81982 46.7846 11.6503 46.3704 15.0468C46.0942 17.0902 45.3763 18.8575 44.2165 20.3487C43.0567 21.8398 41.4551 22.7649 39.4116 23.1239ZM33.9855 17.7392C34.1235 17.7668 34.234 17.7944 34.3168 17.822C34.4273 17.8496 34.5239 17.8634 34.6068 17.8634C35.4628 17.8082 36.2222 17.5735 36.8849 17.1593C37.5477 16.745 38.0723 16.2342 38.4589 15.6267C38.8455 15.0192 39.0664 14.3564 39.1217 13.6385C39.2045 12.8929 39.0664 12.1611 38.7075 11.4431C38.5418 11.0566 38.2794 10.7114 37.9205 10.4076C37.5615 10.0763 37.1611 9.81392 36.7193 9.62062C36.2774 9.42733 35.808 9.30306 35.3109 9.24783C34.8415 9.16499 34.3997 9.1788 33.9855 9.28926V17.7392ZM77.2941 16.4965C77.2941 18.8437 77.0456 20.97 76.5485 22.8754C76.0791 24.7807 75.3197 26.5756 74.2704 28.2601C73.3315 29.8341 72.1579 31.132 70.7496 32.1537C69.6726 32.8993 68.5543 33.4377 67.3945 33.7691C66.2623 34.1005 65.1163 34.2247 63.9565 34.1419C62.8243 34.0591 61.706 33.7553 60.6014 33.2306C59.5245 32.7336 58.5027 32.0294 57.5362 31.1182C56.3488 29.9584 55.3824 28.6881 54.6368 27.3074C53.9188 25.8991 53.3803 24.3941 53.0214 22.7925C52.4691 20.3625 52.3034 17.9739 52.5243 15.6267C52.7452 13.2795 53.3803 10.9875 54.4297 8.75078C54.9819 7.70145 55.6033 6.72115 56.2936 5.80989C57.0116 4.89862 57.8262 4.08401 58.7375 3.36604C59.8144 2.56524 60.9328 1.98534 62.0926 1.62636C63.28 1.23976 64.4536 1.08788 65.6134 1.17073C66.7731 1.25357 67.9053 1.55732 69.0099 2.08199C70.1421 2.60666 71.2052 3.33843 72.1993 4.27731C73.4143 5.4371 74.3808 6.72115 75.0988 8.12947C75.8167 9.53778 76.3552 11.0566 76.7142 12.6858C76.8799 13.4314 77.0041 14.1493 77.087 14.8397C77.1698 15.53 77.2389 16.0823 77.2941 16.4965ZM60.4357 18.1119C60.3805 18.9127 60.4357 19.7412 60.6014 20.5972C60.7671 21.4256 61.0432 22.2264 61.4298 22.9996C61.8993 23.9937 62.4515 24.8222 63.0867 25.4849C63.7494 26.1476 64.4674 26.4928 65.2406 26.5204C66.0414 26.5204 66.7593 26.2029 67.3945 25.5677C67.643 25.3468 67.8777 25.1121 68.0986 24.8636C68.3471 24.615 68.5404 24.3389 68.6785 24.0352C70.7496 20.0035 70.7634 15.9719 68.7199 11.9402C68.5543 11.5536 68.3195 11.2084 68.0158 10.9047C67.7396 10.5733 67.4359 10.2557 67.1045 9.95199C66.5522 9.51017 65.9723 9.28926 65.3648 9.28926C64.7573 9.26164 64.1498 9.44113 63.5423 9.82773C63.1557 10.1315 62.8105 10.4767 62.5068 10.8633C62.203 11.2222 61.9407 11.6088 61.7198 12.023C60.7809 13.818 60.3529 15.8476 60.4357 18.1119ZM102.287 23.4553C102.039 24.5046 101.638 25.5953 101.086 26.7275C100.534 27.8321 99.7881 28.8814 98.8492 29.8755C97.938 30.842 96.8334 31.6981 95.5355 32.4436C94.2653 33.1616 92.7879 33.6448 91.1035 33.8934C89.281 34.1143 87.4999 34.1005 85.7602 33.8519C85.3183 33.7691 84.8903 33.631 84.4761 33.4377C84.0895 33.2444 83.7443 32.9959 83.4406 32.6922C82.7779 32.0294 82.4603 31.2976 82.4879 30.4968C82.5155 29.4199 82.5569 28.3429 82.6122 27.266C82.6674 26.189 82.6674 25.1121 82.6122 24.0352C82.5569 20.9424 82.5017 18.0567 82.4465 15.3782C82.3913 12.672 82.3636 9.99341 82.3636 7.34247C82.3913 6.70734 82.4051 6.07222 82.4051 5.4371C82.4051 4.77436 82.4051 4.11162 82.4051 3.44888C82.4327 2.7033 82.5569 2.20625 82.7779 1.95773C83.0264 1.68159 83.5096 1.47448 84.2276 1.33641C86.6852 0.894586 89.1567 0.977429 91.642 1.58494C94.2653 2.19245 96.3916 3.24178 98.0208 4.73294C99.6776 6.2241 100.906 7.97759 101.707 9.99341C102.508 12.0092 102.936 14.1907 102.991 16.5379C103.047 18.8851 102.812 21.1909 102.287 23.4553ZM90.0265 25.3606C90.5512 25.4159 91.0068 25.3744 91.3934 25.2364C91.8076 25.0983 92.2081 24.8912 92.5946 24.615C93.1745 24.1732 93.6302 23.6486 93.9615 23.041C94.2929 22.4059 94.5414 21.7432 94.7071 21.0528C94.9004 20.3349 95.0247 19.6169 95.0799 18.8989C95.1351 18.1534 95.1766 17.463 95.2042 16.8279C95.2042 15.8062 95.1213 14.7983 94.9556 13.8042C94.8176 12.7824 94.5414 11.885 94.1272 11.1118C93.7406 10.3386 93.1883 9.74489 92.4704 9.33068C91.78 8.91647 90.8964 8.80601 89.8194 8.99931C90.0956 11.7331 90.2336 14.4531 90.2336 17.1593C90.2336 19.8654 90.1646 22.5992 90.0265 25.3606ZM123.529 26.6033C125.131 26.548 125.945 27.2522 125.973 28.7157C126.001 29.4337 125.987 30.055 125.931 30.5797C125.904 31.1043 125.862 31.7119 125.807 32.4022C125.697 33.3687 125.117 33.8796 124.068 33.9348C121.555 33.99 119.166 34.0591 116.902 34.1419C114.665 34.2523 112.511 34.1557 110.44 33.8519C109.833 33.7691 109.335 33.5206 108.949 33.1064C108.59 32.6922 108.397 32.1675 108.369 31.5324C108.231 27.0037 108.148 22.6268 108.12 18.4019C108.093 14.1769 108.065 10.2143 108.038 6.51404C108.038 5.93415 108.051 5.35425 108.079 4.77436C108.107 4.16685 108.189 3.61457 108.328 3.11752C108.493 2.62046 108.742 2.22006 109.073 1.9163C109.432 1.58494 109.943 1.40545 110.606 1.37783C111.324 1.35022 112.042 1.35022 112.76 1.37783C113.478 1.37783 114.196 1.36403 114.913 1.33641C115.383 1.33641 115.825 1.3226 116.239 1.29499C116.681 1.26738 117.123 1.23976 117.564 1.21215C118.448 1.15692 119.304 1.10169 120.133 1.04646C120.989 0.991235 121.831 0.949813 122.659 0.9222C123.184 0.9222 123.722 1.06027 124.275 1.33641C124.855 1.58494 125.227 1.95773 125.393 2.45478C125.862 3.89071 125.959 5.28522 125.683 6.63831C125.6 7.24582 125.352 7.78429 124.937 8.25373C124.551 8.72317 123.957 8.93027 123.156 8.87504C122.438 8.81982 121.734 8.77839 121.044 8.75078C120.353 8.72317 119.649 8.69555 118.931 8.66794C117.937 8.66794 117.205 8.72317 116.736 8.83362C116.267 8.91647 115.921 9.06834 115.7 9.28926C115.507 9.51017 115.369 9.82773 115.286 10.2419C115.231 10.6285 115.203 11.1394 115.203 11.7745C115.231 12.382 115.231 13.1414 115.203 14.0527C115.203 14.5221 115.397 14.8259 115.783 14.9639C116.198 15.0744 116.598 15.1296 116.985 15.1296C117.703 15.1296 118.379 15.1296 119.014 15.1296C119.649 15.1296 120.284 15.171 120.92 15.2539C121.306 15.3091 121.624 15.4472 121.872 15.6681C122.148 15.889 122.3 16.2204 122.328 16.6622C122.355 17.2145 122.383 17.7668 122.411 18.319C122.466 18.8713 122.48 19.4236 122.452 19.9759C122.397 21.2185 121.707 21.8398 120.381 21.8398C120.05 21.8398 119.718 21.826 119.387 21.7984C119.056 21.7708 118.738 21.7432 118.434 21.7156C118.075 21.688 117.716 21.6742 117.357 21.6742C117.026 21.6465 116.681 21.6465 116.322 21.6742C115.963 21.7018 115.714 21.7846 115.576 21.9227C115.438 22.0331 115.369 22.2679 115.369 22.6268C115.369 23.0963 115.355 23.5657 115.328 24.0352C115.328 24.477 115.342 24.9464 115.369 25.4435C115.397 25.9958 115.493 26.3547 115.659 26.5204C115.852 26.6861 116.225 26.7689 116.777 26.7689C117.827 26.7689 118.71 26.7689 119.428 26.7689C120.146 26.7413 120.754 26.7275 121.251 26.7275C121.748 26.6999 122.162 26.6723 122.494 26.6447C122.853 26.6171 123.198 26.6033 123.529 26.6033ZM151.423 11.6503C151.036 12.1749 150.581 12.6167 150.056 12.9757C149.531 13.3347 149.007 13.5556 148.482 13.6385C147.957 13.7213 147.46 13.6523 146.991 13.4314C146.521 13.1828 146.135 12.7272 145.831 12.0645C145.638 11.6226 145.431 11.1946 145.21 10.7804C144.989 10.3662 144.754 9.9658 144.506 9.5792C144.229 9.16499 143.87 8.80601 143.429 8.50226C142.683 7.89475 141.924 7.85332 141.15 8.37799C140.764 8.5989 140.474 8.88885 140.281 9.24783C140.115 9.60682 140.032 9.97961 140.032 10.3662C140.032 10.7528 140.101 11.1394 140.239 11.526C140.377 11.885 140.598 12.1887 140.902 12.4373C141.454 12.8791 142.007 13.3071 142.559 13.7213C143.139 14.1355 143.719 14.5359 144.298 14.9225C144.989 15.4196 145.707 15.889 146.452 16.3308C147.198 16.7727 147.888 17.2421 148.523 17.7392C149.766 18.7056 150.664 19.824 151.216 21.0943C151.796 22.3369 152.058 23.7314 152.003 25.2778C151.948 26.41 151.727 27.4593 151.34 28.4258C150.981 29.3923 150.415 30.2759 149.642 31.0767C148.316 32.4298 146.853 33.3135 145.251 33.7277C143.677 34.1695 141.979 34.1971 140.156 33.8105C138.72 33.5068 137.409 32.9959 136.221 32.2779C135.062 31.5324 133.985 30.6349 132.991 29.5856C132.411 28.9505 131.941 28.2739 131.582 27.5559C131.223 26.8104 130.947 26.0096 130.754 25.1535C130.588 24.3251 130.726 23.4967 131.168 22.6683C131.527 22.0055 131.955 21.4394 132.452 20.97C132.977 20.5006 133.626 20.183 134.399 20.0173C135.034 19.8792 135.641 19.9345 136.221 20.183C136.801 20.4039 137.243 20.7905 137.547 21.3428C137.768 21.7018 137.961 22.0607 138.127 22.4197C138.292 22.7787 138.458 23.1515 138.624 23.5381C138.928 24.2008 139.369 24.7531 139.949 25.1949C140.557 25.6092 141.15 25.8853 141.73 26.0234C142.338 26.1338 142.876 26.0786 143.346 25.8577C143.843 25.6092 144.133 25.1397 144.216 24.4494C144.271 23.9523 144.16 23.4276 143.884 22.8754C143.636 22.2955 143.249 21.8122 142.724 21.4256C142.089 20.9838 141.454 20.542 140.819 20.1002C140.184 19.6583 139.535 19.2441 138.872 18.8575C136.774 17.6425 134.937 16.0823 133.363 14.1769C132.563 13.0171 132.093 11.8021 131.955 10.5319C131.845 9.23403 131.996 7.99139 132.411 6.80399C132.825 5.61659 133.501 4.56725 134.44 3.65599C135.379 2.74473 136.525 2.08199 137.878 1.66778C139.397 1.22595 140.861 0.991235 142.269 0.96362C143.705 0.936006 145.003 1.15692 146.162 1.62636C147.018 1.98534 147.916 2.51001 148.855 3.20036C149.821 3.89071 150.622 4.69152 151.257 5.60278C151.892 6.48643 152.279 7.45292 152.417 8.50226C152.555 9.55159 152.224 10.6009 151.423 11.6503Z" fill="#DFC5FF"/>
</svg>
